%TF.GenerationSoftware,KiCad,Pcbnew,10.0.6*%
%TF.CreationDate,2026-09-27T01:16:22+02:00*%
%TF.ProjectId,Vibra_V1,56696272-615f-4563-912e-6b696361645f,E-HS*%
%TF.SameCoordinates,Original*%
%TF.FileFunction,Copper,L1,Top*%
%TF.FilePolarity,Positive*%
%FSLAX46Y46*%
G04 Gerber Fmt 4.6, Leading zero omitted, Abs format (unit mm)*
G04 Created by KiCad (PCBNEW 10.0.6) date 2026-09-27 01:16:22*
%MOMM*%
%LPD*%
G01*
G04 APERTURE LIST*
G04 Aperture macros list*
%AMRoundRect*
0 Rectangle with rounded corners*
0 $1 Rounding radius*
0 $2 $3 $4 $5 $6 $7 $8 $9 X,Y pos of 4 corners*
0 Add a 4 corners polygon primitive as box body*
4,1,4,$2,$3,$4,$5,$6,$7,$8,$9,$2,$3,0*
0 Add four circle primitives for the rounded corners*
1,1,$1+$1,$2,$3*
1,1,$1+$1,$4,$5*
1,1,$1+$1,$6,$7*
1,1,$1+$1,$8,$9*
0 Add four rect primitives between the rounded corners*
20,1,$1+$1,$2,$3,$4,$5,0*
20,1,$1+$1,$4,$5,$6,$7,0*
20,1,$1+$1,$6,$7,$8,$9,0*
20,1,$1+$1,$8,$9,$2,$3,0*%
G04 Aperture macros list end*
%TA.AperFunction,SMDPad,CuDef*%
%ADD10RoundRect,0.250000X-0.325000X-0.450000X0.325000X-0.450000X0.325000X0.450000X-0.325000X0.450000X0*%
%TD*%
%TA.AperFunction,SMDPad,CuDef*%
%ADD11C,1.500000*%
%TD*%
%TA.AperFunction,SMDPad,CuDef*%
%ADD12RoundRect,0.250000X0.450000X-0.350000X0.450000X0.350000X-0.450000X0.350000X-0.450000X-0.350000X0*%
%TD*%
%TA.AperFunction,ComponentPad*%
%ADD13R,1.900000X1.900000*%
%TD*%
%TA.AperFunction,ComponentPad*%
%ADD14C,1.900000*%
%TD*%
%TA.AperFunction,SMDPad,CuDef*%
%ADD15RoundRect,0.250000X-0.337500X-0.475000X0.337500X-0.475000X0.337500X0.475000X-0.337500X0.475000X0*%
%TD*%
%TA.AperFunction,ComponentPad*%
%ADD16O,1.900000X1.900000*%
%TD*%
%TA.AperFunction,SMDPad,CuDef*%
%ADD17RoundRect,0.250000X-0.350000X-0.450000X0.350000X-0.450000X0.350000X0.450000X-0.350000X0.450000X0*%
%TD*%
%TA.AperFunction,SMDPad,CuDef*%
%ADD18R,1.200000X0.800000*%
%TD*%
%TA.AperFunction,ViaPad*%
%ADD19C,0.600000*%
%TD*%
%TA.AperFunction,Conductor*%
%ADD20C,0.250000*%
%TD*%
%TA.AperFunction,Conductor*%
%ADD21C,0.600000*%
%TD*%
%TA.AperFunction,Conductor*%
%ADD22C,0.187400*%
%TD*%
G04 APERTURE END LIST*
D10*
%TO.P,D5,1*%
%TO.N,/GND*%
X136975000Y-84500000D03*
%TO.P,D5,2*%
%TO.N,/LED5_A*%
X139025000Y-84500000D03*
%TD*%
D11*
%TO.P,TP6,1*%
%TO.N,/CAL*%
X112000000Y-76000000D03*
%TD*%
D12*
%TO.P,R10,1*%
%TO.N,/LED2*%
X123000000Y-81500000D03*
%TO.P,R10,2*%
%TO.N,/LED2_A*%
X123000000Y-79500000D03*
%TD*%
D13*
%TO.P,U1,1*%
%TO.N,/LED1*%
X108880000Y-53380000D03*
D14*
%TO.P,U1,2*%
%TO.N,/LED2*%
X108880000Y-55920000D03*
%TO.P,U1,3*%
%TO.N,/CAL*%
X108880000Y-58460000D03*
%TO.P,U1,4*%
%TO.N,/LED3*%
X108880000Y-61000000D03*
%TO.P,U1,5*%
%TO.N,/I2C_SDA*%
X108880000Y-63540000D03*
%TO.P,U1,6*%
%TO.N,/I2C_SCL*%
X108880000Y-66080000D03*
%TO.P,U1,7*%
%TO.N,/UART_TX*%
X108880000Y-68620000D03*
%TO.P,U1,8*%
%TO.N,/UART_RX*%
X124120000Y-68620000D03*
%TO.P,U1,9*%
%TO.N,/LED4*%
X124120000Y-66080000D03*
%TO.P,U1,10*%
%TO.N,/LED5*%
X124120000Y-63540000D03*
%TO.P,U1,11*%
%TO.N,/ACC_INT1*%
X124120000Y-61000000D03*
%TO.P,U1,12*%
%TO.N,/+3V3*%
X124120000Y-58460000D03*
%TO.P,U1,13*%
%TO.N,/GND*%
X124120000Y-55920000D03*
%TO.P,U1,14*%
%TO.N,unconnected-(U1-VBUS_5V-Pad14)*%
X124120000Y-53380000D03*
%TD*%
D11*
%TO.P,TP8,1*%
%TO.N,/I2C_SCL*%
X124500000Y-77000000D03*
%TD*%
D15*
%TO.P,C6,1*%
%TO.N,/+3V3*%
X133962500Y-53000000D03*
%TO.P,C6,2*%
%TO.N,/GND*%
X136037500Y-53000000D03*
%TD*%
D13*
%TO.P,J3,1*%
%TO.N,/+3V3*%
X144000000Y-77000000D03*
D16*
%TO.P,J3,2*%
%TO.N,unconnected-(J3-3Vo_NC-Pad2)*%
X144000000Y-74460000D03*
%TO.P,J3,3*%
%TO.N,/GND*%
X144000000Y-71920000D03*
%TO.P,J3,4*%
%TO.N,/I2C_SCL*%
X144000000Y-69380000D03*
%TO.P,J3,5*%
%TO.N,/I2C_SDA*%
X144000000Y-66840000D03*
%TO.P,J3,6*%
%TO.N,/GND*%
X144000000Y-64300000D03*
%TO.P,J3,7*%
%TO.N,/+3V3*%
X144000000Y-61760000D03*
%TO.P,J3,8*%
%TO.N,/ACC_INT1*%
X144000000Y-59220000D03*
%TD*%
D10*
%TO.P,D1,1*%
%TO.N,/GND*%
X116975000Y-84500000D03*
%TO.P,D1,2*%
%TO.N,/LED1_A*%
X119025000Y-84500000D03*
%TD*%
%TO.P,D2,1*%
%TO.N,/GND*%
X121975000Y-84500000D03*
%TO.P,D2,2*%
%TO.N,/LED2_A*%
X124025000Y-84500000D03*
%TD*%
D17*
%TO.P,R7,1*%
%TO.N,/+3V3*%
X129000000Y-56000000D03*
%TO.P,R7,2*%
%TO.N,/I2C_SDA*%
X131000000Y-56000000D03*
%TD*%
D12*
%TO.P,R4,1*%
%TO.N,/+3V3*%
X115000000Y-76500000D03*
%TO.P,R4,2*%
%TO.N,/CAL*%
X115000000Y-74500000D03*
%TD*%
D17*
%TO.P,R8,1*%
%TO.N,/+3V3*%
X134000000Y-56000000D03*
%TO.P,R8,2*%
%TO.N,/I2C_SCL*%
X136000000Y-56000000D03*
%TD*%
D15*
%TO.P,C9,1*%
%TO.N,/+3V3*%
X132962500Y-66500000D03*
%TO.P,C9,2*%
%TO.N,/GND*%
X135037500Y-66500000D03*
%TD*%
D12*
%TO.P,R9,1*%
%TO.N,/LED1*%
X118000000Y-81500000D03*
%TO.P,R9,2*%
%TO.N,/LED1_A*%
X118000000Y-79500000D03*
%TD*%
D15*
%TO.P,C10,1*%
%TO.N,/+3V3*%
X132962500Y-70000000D03*
%TO.P,C10,2*%
%TO.N,/GND*%
X135037500Y-70000000D03*
%TD*%
D13*
%TO.P,J2,1*%
%TO.N,/GND*%
X103500000Y-74000000D03*
D16*
%TO.P,J2,2*%
%TO.N,/UART_TX*%
X106040000Y-74000000D03*
%TO.P,J2,3*%
%TO.N,/UART_RX*%
X108580000Y-74000000D03*
%TD*%
D12*
%TO.P,R13,1*%
%TO.N,/LED5*%
X138000000Y-81500000D03*
%TO.P,R13,2*%
%TO.N,/LED5_A*%
X138000000Y-79500000D03*
%TD*%
D11*
%TO.P,TP7,1*%
%TO.N,/I2C_SDA*%
X124500000Y-73500000D03*
%TD*%
D18*
%TO.P,SW2,1*%
%TO.N,/CAL*%
X108400000Y-80650000D03*
%TO.P,SW2,2*%
X114600000Y-80650000D03*
%TO.P,SW2,3*%
%TO.N,/GND*%
X108400000Y-84350000D03*
%TO.P,SW2,4*%
X114600000Y-84350000D03*
%TD*%
D10*
%TO.P,D3,1*%
%TO.N,/GND*%
X126975000Y-84500000D03*
%TO.P,D3,2*%
%TO.N,/LED3_A*%
X129025000Y-84500000D03*
%TD*%
D15*
%TO.P,C5,1*%
%TO.N,/+3V3*%
X128962500Y-53000000D03*
%TO.P,C5,2*%
%TO.N,/GND*%
X131037500Y-53000000D03*
%TD*%
D11*
%TO.P,TP9,1*%
%TO.N,/ACC_INT1*%
X137000000Y-74000000D03*
%TD*%
D12*
%TO.P,R12,1*%
%TO.N,/LED4*%
X133000000Y-81500000D03*
%TO.P,R12,2*%
%TO.N,/LED4_A*%
X133000000Y-79500000D03*
%TD*%
D11*
%TO.P,TP4,1*%
%TO.N,/GND*%
X103500000Y-65000000D03*
%TD*%
D15*
%TO.P,C8,1*%
%TO.N,/+3V3*%
X132962500Y-63000000D03*
%TO.P,C8,2*%
%TO.N,/GND*%
X135037500Y-63000000D03*
%TD*%
D10*
%TO.P,D4,1*%
%TO.N,/GND*%
X131975000Y-84500000D03*
%TO.P,D4,2*%
%TO.N,/LED4_A*%
X134025000Y-84500000D03*
%TD*%
D11*
%TO.P,TP3,1*%
%TO.N,/+3V3*%
X140000000Y-55500000D03*
%TD*%
D12*
%TO.P,R11,1*%
%TO.N,/LED3*%
X128000000Y-81500000D03*
%TO.P,R11,2*%
%TO.N,/LED3_A*%
X128000000Y-79500000D03*
%TD*%
D19*
%TO.N,/LED2*%
X119274100Y-81212000D03*
%TO.N,/LED1*%
X113988300Y-79742200D03*
%TO.N,/LED3*%
X124532200Y-78401700D03*
X115562600Y-66061200D03*
%TO.N,/I2C_SDA*%
X133376200Y-57680800D03*
X125063200Y-69838900D03*
%TO.N,/I2C_SCL*%
X123116200Y-73878700D03*
X138121000Y-57339000D03*
%TO.N,/UART_RX*%
X110549100Y-64771300D03*
%TO.N,/LED4*%
X130488200Y-78394700D03*
%TO.N,/+3V3*%
X123116200Y-76849000D03*
X142322700Y-57553900D03*
X131681200Y-66705100D03*
%TO.N,/LED1_A*%
X115818400Y-80753700D03*
X115494200Y-78266700D03*
%TD*%
%TO.N,/LED5_A*%
D20*
X139116600Y-84408400D02*
X139116600Y-80616600D01*
X139025000Y-84500000D02*
X139116600Y-84408400D01*
X139116600Y-80616600D02*
X138000000Y-79500000D01*
%TO.N,/CAL*%
X107548300Y-59791700D02*
X107548300Y-69153100D01*
X112000000Y-76000000D02*
X108500000Y-79500000D01*
X113197600Y-74802400D02*
X113500000Y-74500000D01*
X108880000Y-58460000D02*
X107548300Y-59791700D01*
X113500000Y-74500000D02*
X115000000Y-74500000D01*
X108500000Y-80650000D02*
X114500000Y-80650000D01*
X107548300Y-69153100D02*
X113197600Y-74802400D01*
X108500000Y-79500000D02*
X108500000Y-80650000D01*
X112000000Y-76000000D02*
X113197600Y-74802400D01*
%TO.N,/LED2*%
X122712000Y-81212000D02*
X123000000Y-81500000D01*
X119274100Y-81212000D02*
X122712000Y-81212000D01*
%TO.N,/LED2_A*%
X124076100Y-84448900D02*
X124025000Y-84500000D01*
X124076100Y-80576100D02*
X124076100Y-84448900D01*
X123000000Y-79500000D02*
X124076100Y-80576100D01*
%TO.N,/LED1*%
X113988300Y-79742200D02*
X116242200Y-79742200D01*
X116242200Y-79742200D02*
X118000000Y-81500000D01*
%TO.N,/LED3*%
X108880000Y-61000000D02*
X110501400Y-61000000D01*
X110501400Y-61000000D02*
X115562600Y-66061200D01*
X127630500Y-81500000D02*
X128000000Y-81500000D01*
X124532200Y-78401700D02*
X127630500Y-81500000D01*
%TO.N,/I2C_SDA*%
X124500000Y-69924400D02*
X124500000Y-73500000D01*
X132680800Y-57680800D02*
X131000000Y-56000000D01*
X133376200Y-57680800D02*
X132680800Y-57680800D01*
X124500000Y-69924400D02*
X114768200Y-69924400D01*
X114768200Y-69924400D02*
X108880000Y-64036200D01*
X108880000Y-64036200D02*
X108880000Y-63540000D01*
X125063200Y-69838900D02*
X124977700Y-69924400D01*
X124977700Y-69924400D02*
X124500000Y-69924400D01*
%TO.N,/I2C_SCL*%
X138121000Y-57339000D02*
X137339000Y-57339000D01*
X123116200Y-75616200D02*
X124500000Y-77000000D01*
X137339000Y-57339000D02*
X136000000Y-56000000D01*
X108880000Y-66080000D02*
X116678700Y-73878700D01*
X123116200Y-73878700D02*
X123116200Y-75616200D01*
X116678700Y-73878700D02*
X123116200Y-73878700D01*
%TO.N,/UART_RX*%
X124120000Y-68620000D02*
X114397800Y-68620000D01*
X114397800Y-68620000D02*
X110549100Y-64771300D01*
%TO.N,/LED4*%
X130488200Y-78988200D02*
X133000000Y-81500000D01*
X130488200Y-78394700D02*
X130488200Y-78988200D01*
%TO.N,/LED5*%
X124120000Y-63540000D02*
X135341300Y-74761300D01*
X135341300Y-78841300D02*
X138000000Y-81500000D01*
X135341300Y-74761300D02*
X135341300Y-78841300D01*
%TO.N,/ACC_INT1*%
X124120000Y-61000000D02*
X131285200Y-68165200D01*
X137000000Y-71052700D02*
X137000000Y-74000000D01*
X137000000Y-66220000D02*
X137000000Y-71052700D01*
X132380200Y-71052700D02*
X137000000Y-71052700D01*
X131285200Y-68165200D02*
X131285200Y-69957700D01*
X131285200Y-69957700D02*
X132380200Y-71052700D01*
X144000000Y-59220000D02*
X137000000Y-66220000D01*
%TO.N,/+3V3*%
D21*
X132757400Y-66705100D02*
X132962500Y-66500000D01*
X134000000Y-56000000D02*
X134000000Y-54797300D01*
X132962500Y-70000000D02*
X132962500Y-66500000D01*
X132962500Y-63000000D02*
X134189800Y-61772700D01*
X142322700Y-57553900D02*
X142053900Y-57553900D01*
X140000000Y-55500000D02*
X139297300Y-54797300D01*
X133962500Y-54759800D02*
X133962500Y-54272200D01*
X129000000Y-54272200D02*
X128962500Y-54234700D01*
X134189800Y-56189800D02*
X134000000Y-56000000D01*
X123116200Y-76849000D02*
X115349000Y-76849000D01*
X139297300Y-54797300D02*
X134000000Y-54797300D01*
X142053900Y-57553900D02*
X140000000Y-55500000D01*
X133962500Y-54272200D02*
X133962500Y-53000000D01*
X134000000Y-54797300D02*
X133962500Y-54759800D01*
X132962500Y-63000000D02*
X132962500Y-66500000D01*
X129000000Y-56000000D02*
X126540000Y-58460000D01*
X129000000Y-56000000D02*
X129000000Y-54272200D01*
X126540000Y-58460000D02*
X124120000Y-58460000D01*
X128962500Y-54234700D02*
X128962500Y-53000000D01*
X133962500Y-54272200D02*
X129000000Y-54272200D01*
X131681200Y-66705100D02*
X132757400Y-66705100D01*
X115349000Y-76849000D02*
X115000000Y-76500000D01*
X134189800Y-61772700D02*
X134189800Y-56189800D01*
%TO.N,/LED1_A*%
D20*
X116766700Y-78266700D02*
X118000000Y-79500000D01*
D22*
X116490900Y-82426200D02*
X117876200Y-82426200D01*
D20*
X115494200Y-78266700D02*
X116766700Y-78266700D01*
D22*
X117876200Y-82426200D02*
X119025000Y-83575000D01*
D20*
X115818400Y-81753700D02*
X116490900Y-82426200D01*
X115818400Y-80753700D02*
X115818400Y-81753700D01*
X119025000Y-83575000D02*
X119025000Y-84500000D01*
%TO.N,/LED3_A*%
X128000000Y-79500000D02*
X129076100Y-80576100D01*
X129076100Y-80576100D02*
X129076100Y-84448900D01*
X129076100Y-84448900D02*
X129025000Y-84500000D01*
%TO.N,/LED4_A*%
X134073800Y-82135800D02*
X134073800Y-80573800D01*
X134025000Y-83575000D02*
X134025000Y-84500000D01*
X134073800Y-80573800D02*
X133000000Y-79500000D01*
X133329800Y-82879800D02*
X134073800Y-82135800D01*
D22*
X133329800Y-82879800D02*
X134025000Y-83575000D01*
%TD*%
%TA.AperFunction,Conductor*%
%TO.N,/GND*%
G36*
X142196663Y-50320691D02*
G01*
X142290087Y-50378536D01*
X142356306Y-50466224D01*
X142386377Y-50571912D01*
X142376238Y-50681325D01*
X142327259Y-50779688D01*
X142270675Y-50836709D01*
X142025126Y-51025126D01*
X141468912Y-51749998D01*
X141468911Y-51750000D01*
X141119259Y-52594132D01*
X141000000Y-53499998D01*
X141000000Y-53500001D01*
X141119259Y-54405866D01*
X141119260Y-54405870D01*
X141158623Y-54500901D01*
X141181303Y-54608417D01*
X141163613Y-54716866D01*
X141107940Y-54811601D01*
X141021805Y-54879827D01*
X140916840Y-54912331D01*
X140807222Y-54904722D01*
X140707754Y-54858028D01*
X140670958Y-54826748D01*
X140605907Y-54761697D01*
X140507919Y-54696224D01*
X140450231Y-54657678D01*
X140277251Y-54586027D01*
X140216039Y-54573851D01*
X140093618Y-54549500D01*
X140093616Y-54549500D01*
X139906384Y-54549500D01*
X139891695Y-54549500D01*
X139891695Y-54547292D01*
X139801934Y-54539495D01*
X139703292Y-54491082D01*
X139670689Y-54462875D01*
X139604614Y-54396800D01*
X139604611Y-54396798D01*
X139604610Y-54396797D01*
X139490489Y-54330909D01*
X139490480Y-54330906D01*
X139363192Y-54296800D01*
X136981712Y-54296800D01*
X136873701Y-54276609D01*
X136780277Y-54218764D01*
X136714058Y-54131076D01*
X136683987Y-54025388D01*
X136694126Y-53915975D01*
X136742352Y-53818614D01*
X136818352Y-53717090D01*
X136868596Y-53582382D01*
X136868596Y-53582379D01*
X136874999Y-53522828D01*
X136875000Y-53522822D01*
X136875000Y-53300000D01*
X136336500Y-53300000D01*
X136228489Y-53279809D01*
X136135065Y-53221964D01*
X136124369Y-53211717D01*
X135838916Y-52924348D01*
X135835065Y-52921964D01*
X135830363Y-52915738D01*
X135826369Y-52911717D01*
X135817689Y-52898955D01*
X135768846Y-52834276D01*
X135765354Y-52822004D01*
X135764574Y-52820857D01*
X135762584Y-52812269D01*
X135738775Y-52728588D01*
X135737500Y-52701000D01*
X135737500Y-52577735D01*
X136337500Y-52577735D01*
X136458950Y-52700000D01*
X136875000Y-52700000D01*
X136875000Y-52477177D01*
X136874999Y-52477171D01*
X136868596Y-52417620D01*
X136868596Y-52417617D01*
X136818352Y-52282909D01*
X136732191Y-52167813D01*
X136732186Y-52167808D01*
X136617090Y-52081647D01*
X136482381Y-52031403D01*
X136422828Y-52025000D01*
X136337500Y-52025000D01*
X136337500Y-52577735D01*
X135737500Y-52577735D01*
X135737500Y-52025000D01*
X135652171Y-52025000D01*
X135592620Y-52031403D01*
X135592617Y-52031403D01*
X135457909Y-52081647D01*
X135342813Y-52167808D01*
X135342808Y-52167813D01*
X135256647Y-52282908D01*
X135254092Y-52289761D01*
X135197428Y-52383906D01*
X135110581Y-52451225D01*
X135005281Y-52482624D01*
X134895748Y-52473865D01*
X134796777Y-52426129D01*
X134721732Y-52345864D01*
X134709594Y-52324986D01*
X134702792Y-52312117D01*
X134622150Y-52202850D01*
X134558245Y-52155686D01*
X134512880Y-52122205D01*
X134384704Y-52077355D01*
X134384699Y-52077354D01*
X134354266Y-52074500D01*
X133570734Y-52074500D01*
X133570733Y-52074500D01*
X133540301Y-52077354D01*
X133540295Y-52077355D01*
X133412119Y-52122205D01*
X133302850Y-52202850D01*
X133222205Y-52312119D01*
X133177355Y-52440295D01*
X133177354Y-52440301D01*
X133174500Y-52470733D01*
X133174500Y-53472700D01*
X133154309Y-53580711D01*
X133096464Y-53674135D01*
X133008776Y-53740354D01*
X132903088Y-53770425D01*
X132875500Y-53771700D01*
X132174000Y-53771700D01*
X132065989Y-53751509D01*
X131972565Y-53693664D01*
X131906346Y-53605976D01*
X131876275Y-53500288D01*
X131875000Y-53472700D01*
X131875000Y-53300000D01*
X131336500Y-53300000D01*
X131228489Y-53279809D01*
X131135065Y-53221964D01*
X131124369Y-53211717D01*
X130838916Y-52924348D01*
X130835065Y-52921964D01*
X130830363Y-52915738D01*
X130826369Y-52911717D01*
X130817689Y-52898955D01*
X130768846Y-52834276D01*
X130765354Y-52822004D01*
X130764574Y-52820857D01*
X130762584Y-52812269D01*
X130738775Y-52728588D01*
X130737500Y-52701000D01*
X130737500Y-52577735D01*
X131337500Y-52577735D01*
X131458950Y-52700000D01*
X131875000Y-52700000D01*
X131875000Y-52477177D01*
X131874999Y-52477171D01*
X131868596Y-52417620D01*
X131868596Y-52417617D01*
X131818352Y-52282909D01*
X131732191Y-52167813D01*
X131732186Y-52167808D01*
X131617090Y-52081647D01*
X131482381Y-52031403D01*
X131422828Y-52025000D01*
X131337500Y-52025000D01*
X131337500Y-52577735D01*
X130737500Y-52577735D01*
X130737500Y-52025000D01*
X130652171Y-52025000D01*
X130592620Y-52031403D01*
X130592617Y-52031403D01*
X130457909Y-52081647D01*
X130342813Y-52167808D01*
X130342808Y-52167813D01*
X130256647Y-52282908D01*
X130254092Y-52289761D01*
X130197428Y-52383906D01*
X130110581Y-52451225D01*
X130005281Y-52482624D01*
X129895748Y-52473865D01*
X129796777Y-52426129D01*
X129721732Y-52345864D01*
X129709594Y-52324986D01*
X129702792Y-52312117D01*
X129622150Y-52202850D01*
X129558245Y-52155686D01*
X129512880Y-52122205D01*
X129384704Y-52077355D01*
X129384699Y-52077354D01*
X129354266Y-52074500D01*
X128570734Y-52074500D01*
X128570733Y-52074500D01*
X128540301Y-52077354D01*
X128540295Y-52077355D01*
X128412119Y-52122205D01*
X128302850Y-52202850D01*
X128222205Y-52312119D01*
X128177355Y-52440295D01*
X128177354Y-52440301D01*
X128174500Y-52470733D01*
X128174500Y-53529266D01*
X128177354Y-53559698D01*
X128177355Y-53559704D01*
X128222205Y-53687880D01*
X128302850Y-53797150D01*
X128302852Y-53797152D01*
X128340551Y-53824975D01*
X128415467Y-53905359D01*
X128456287Y-54007378D01*
X128462000Y-54065550D01*
X128462000Y-54300592D01*
X128489312Y-54402524D01*
X128499500Y-54479910D01*
X128499500Y-54950224D01*
X128479309Y-55058235D01*
X128421464Y-55151659D01*
X128378053Y-55190798D01*
X128327851Y-55227848D01*
X128327850Y-55227849D01*
X128247205Y-55337119D01*
X128202355Y-55465295D01*
X128202354Y-55465301D01*
X128199500Y-55495733D01*
X128199500Y-55968836D01*
X128179309Y-56076847D01*
X128121464Y-56170271D01*
X128111925Y-56180261D01*
X126420261Y-57871925D01*
X126329608Y-57934023D01*
X126222645Y-57959181D01*
X126208836Y-57959500D01*
X125330810Y-57959500D01*
X125222799Y-57939309D01*
X125129375Y-57881464D01*
X125088914Y-57836247D01*
X125024135Y-57747086D01*
X124997553Y-57710499D01*
X124869501Y-57582447D01*
X124722994Y-57476004D01*
X124722988Y-57476001D01*
X124722987Y-57476000D01*
X124718054Y-57472977D01*
X124714878Y-57470108D01*
X124713490Y-57469100D01*
X124713597Y-57468951D01*
X124636509Y-57399325D01*
X124587078Y-57301190D01*
X124576434Y-57191824D01*
X124606017Y-57085999D01*
X124671831Y-56998007D01*
X124730892Y-56956944D01*
X124731137Y-56955401D01*
X124214054Y-56438318D01*
X124322642Y-56409222D01*
X124442357Y-56340104D01*
X124540104Y-56242357D01*
X124609222Y-56122642D01*
X124638318Y-56014054D01*
X125155401Y-56531137D01*
X125155401Y-56531136D01*
X125232084Y-56380640D01*
X125232086Y-56380635D01*
X125290451Y-56201003D01*
X125319999Y-56014443D01*
X125320000Y-56014441D01*
X125320000Y-55825558D01*
X125319999Y-55825556D01*
X125290451Y-55638996D01*
X125232087Y-55459367D01*
X125232084Y-55459361D01*
X125155401Y-55308862D01*
X124638318Y-55825944D01*
X124609222Y-55717358D01*
X124540104Y-55597643D01*
X124442357Y-55499896D01*
X124322642Y-55430778D01*
X124214052Y-55401681D01*
X124731136Y-54884597D01*
X124730788Y-54882403D01*
X124651469Y-54821345D01*
X124594489Y-54727390D01*
X124575297Y-54619197D01*
X124596485Y-54511377D01*
X124655191Y-54418492D01*
X124718060Y-54367019D01*
X124722986Y-54364000D01*
X124722994Y-54363996D01*
X124869501Y-54257553D01*
X124997553Y-54129501D01*
X125103996Y-53982994D01*
X125186211Y-53821639D01*
X125242171Y-53649409D01*
X125270500Y-53470546D01*
X125270500Y-53289454D01*
X125242171Y-53110591D01*
X125186211Y-52938361D01*
X125103996Y-52777006D01*
X124997553Y-52630499D01*
X124869501Y-52502447D01*
X124722994Y-52396004D01*
X124561639Y-52313789D01*
X124561638Y-52313788D01*
X124561637Y-52313788D01*
X124487687Y-52289761D01*
X124389409Y-52257829D01*
X124389405Y-52257828D01*
X124389404Y-52257828D01*
X124210549Y-52229500D01*
X124210546Y-52229500D01*
X124029454Y-52229500D01*
X124029450Y-52229500D01*
X123850595Y-52257828D01*
X123850592Y-52257828D01*
X123850591Y-52257829D01*
X123797646Y-52275031D01*
X123678362Y-52313788D01*
X123599222Y-52354112D01*
X123517006Y-52396004D01*
X123426769Y-52461564D01*
X123370497Y-52502448D01*
X123242448Y-52630497D01*
X123242447Y-52630499D01*
X123136004Y-52777006D01*
X123113661Y-52820857D01*
X123053788Y-52938362D01*
X122997828Y-53110595D01*
X122969500Y-53289450D01*
X122969500Y-53470549D01*
X122987213Y-53582382D01*
X122997829Y-53649409D01*
X123053789Y-53821639D01*
X123136004Y-53982994D01*
X123242447Y-54129501D01*
X123370499Y-54257553D01*
X123517006Y-54363996D01*
X123517011Y-54363998D01*
X123517013Y-54364000D01*
X123521941Y-54367020D01*
X123525113Y-54369885D01*
X123526510Y-54370900D01*
X123526401Y-54371048D01*
X123603486Y-54440671D01*
X123652919Y-54538806D01*
X123663563Y-54648172D01*
X123633981Y-54753997D01*
X123568168Y-54841990D01*
X123509106Y-54883052D01*
X123508862Y-54884598D01*
X124025945Y-55401681D01*
X123917358Y-55430778D01*
X123797643Y-55499896D01*
X123699896Y-55597643D01*
X123630778Y-55717358D01*
X123601681Y-55825945D01*
X123084598Y-55308862D01*
X123084597Y-55308862D01*
X123007915Y-55459359D01*
X122949548Y-55638996D01*
X122920000Y-55825556D01*
X122920000Y-56014443D01*
X122949548Y-56201003D01*
X123007912Y-56380632D01*
X123007915Y-56380638D01*
X123084597Y-56531135D01*
X123601681Y-56014052D01*
X123630778Y-56122642D01*
X123699896Y-56242357D01*
X123797643Y-56340104D01*
X123917358Y-56409222D01*
X124025945Y-56438318D01*
X123508861Y-56955401D01*
X123509209Y-56957595D01*
X123588530Y-57018654D01*
X123645510Y-57112608D01*
X123664702Y-57220801D01*
X123643515Y-57328621D01*
X123584809Y-57421506D01*
X123521959Y-57472968D01*
X123517017Y-57475996D01*
X123370497Y-57582448D01*
X123242448Y-57710497D01*
X123221376Y-57739501D01*
X123136004Y-57857006D01*
X123123542Y-57881464D01*
X123053788Y-58018362D01*
X123015031Y-58137646D01*
X123009787Y-58153789D01*
X122997828Y-58190595D01*
X122969500Y-58369450D01*
X122969500Y-58550549D01*
X122997828Y-58729404D01*
X122997829Y-58729409D01*
X123053789Y-58901639D01*
X123136004Y-59062994D01*
X123242447Y-59209501D01*
X123370499Y-59337553D01*
X123517006Y-59443996D01*
X123550702Y-59461165D01*
X123555461Y-59463590D01*
X123642533Y-59530617D01*
X123699512Y-59624572D01*
X123718703Y-59732765D01*
X123697514Y-59840585D01*
X123638807Y-59933470D01*
X123555461Y-59996410D01*
X123517009Y-60016002D01*
X123370497Y-60122448D01*
X123242448Y-60250497D01*
X123201564Y-60306769D01*
X123136004Y-60397006D01*
X123094112Y-60479222D01*
X123053788Y-60558362D01*
X123022614Y-60654309D01*
X123008848Y-60696679D01*
X122997828Y-60730595D01*
X122969500Y-60909450D01*
X122969500Y-60909454D01*
X122969500Y-61090546D01*
X122997829Y-61269409D01*
X123022614Y-61345691D01*
X123053755Y-61441536D01*
X123053789Y-61441639D01*
X123136004Y-61602994D01*
X123242447Y-61749501D01*
X123370499Y-61877553D01*
X123517006Y-61983996D01*
X123550702Y-62001165D01*
X123555461Y-62003590D01*
X123642533Y-62070617D01*
X123699512Y-62164572D01*
X123718703Y-62272765D01*
X123697514Y-62380585D01*
X123638807Y-62473470D01*
X123555461Y-62536410D01*
X123517009Y-62556002D01*
X123370497Y-62662448D01*
X123242448Y-62790497D01*
X123220526Y-62820671D01*
X123136004Y-62937006D01*
X123104316Y-62999197D01*
X123053788Y-63098362D01*
X123020328Y-63201345D01*
X123000490Y-63262403D01*
X122997828Y-63270595D01*
X122969500Y-63449450D01*
X122969500Y-63630549D01*
X122997828Y-63809404D01*
X122997829Y-63809409D01*
X123020048Y-63877793D01*
X123052490Y-63977643D01*
X123053789Y-63981639D01*
X123136004Y-64142994D01*
X123242447Y-64289501D01*
X123370499Y-64417553D01*
X123517006Y-64523996D01*
X123550702Y-64541165D01*
X123555461Y-64543590D01*
X123642533Y-64610617D01*
X123699512Y-64704572D01*
X123718703Y-64812765D01*
X123697514Y-64920585D01*
X123638807Y-65013470D01*
X123555461Y-65076410D01*
X123517009Y-65096002D01*
X123517006Y-65096003D01*
X123517006Y-65096004D01*
X123513580Y-65098493D01*
X123370497Y-65202448D01*
X123242448Y-65330497D01*
X123237764Y-65336944D01*
X123136004Y-65477006D01*
X123102653Y-65542460D01*
X123053788Y-65638362D01*
X123016253Y-65753886D01*
X123009787Y-65773789D01*
X122997828Y-65810595D01*
X122969500Y-65989450D01*
X122969500Y-66170549D01*
X122990732Y-66304600D01*
X122997829Y-66349409D01*
X123053789Y-66521639D01*
X123136004Y-66682994D01*
X123242447Y-66829501D01*
X123370499Y-66957553D01*
X123517006Y-67063996D01*
X123550702Y-67081165D01*
X123555461Y-67083590D01*
X123642533Y-67150617D01*
X123699512Y-67244572D01*
X123718703Y-67352765D01*
X123697514Y-67460585D01*
X123638807Y-67553470D01*
X123555461Y-67616410D01*
X123517009Y-67636002D01*
X123370497Y-67742448D01*
X123242448Y-67870497D01*
X123213300Y-67910617D01*
X123136004Y-68017006D01*
X123136002Y-68017008D01*
X123136001Y-68017011D01*
X123136000Y-68017012D01*
X123077796Y-68131244D01*
X123010770Y-68218316D01*
X122916815Y-68275296D01*
X122811386Y-68294500D01*
X114656476Y-68294500D01*
X114548465Y-68274309D01*
X114455041Y-68216464D01*
X114445051Y-68206925D01*
X111137175Y-64899048D01*
X111075077Y-64808395D01*
X111055326Y-64724420D01*
X111052158Y-64724838D01*
X111049600Y-64705414D01*
X111049600Y-64705408D01*
X111015492Y-64578114D01*
X111014118Y-64575735D01*
X110949602Y-64463989D01*
X110949601Y-64463988D01*
X110949600Y-64463986D01*
X110856414Y-64370800D01*
X110856411Y-64370798D01*
X110856410Y-64370797D01*
X110742289Y-64304909D01*
X110742280Y-64304906D01*
X110614992Y-64270800D01*
X110483208Y-64270800D01*
X110336984Y-64309980D01*
X110336482Y-64308108D01*
X110252820Y-64325757D01*
X110144371Y-64308067D01*
X110049636Y-64252395D01*
X109981409Y-64166261D01*
X109948904Y-64061296D01*
X109956513Y-63951678D01*
X109961539Y-63934462D01*
X110002171Y-63809409D01*
X110030500Y-63630546D01*
X110030500Y-63449454D01*
X110002171Y-63270591D01*
X109946211Y-63098361D01*
X109863996Y-62937006D01*
X109757553Y-62790499D01*
X109629501Y-62662447D01*
X109482994Y-62556004D01*
X109444538Y-62536409D01*
X109357468Y-62469385D01*
X109300488Y-62375431D01*
X109281296Y-62267237D01*
X109302484Y-62159417D01*
X109361190Y-62066532D01*
X109444538Y-62003590D01*
X109482994Y-61983996D01*
X109629501Y-61877553D01*
X109757553Y-61749501D01*
X109863996Y-61602994D01*
X109922204Y-61488756D01*
X109989230Y-61401684D01*
X110083185Y-61344704D01*
X110188614Y-61325500D01*
X110242723Y-61325500D01*
X110350734Y-61345691D01*
X110444158Y-61403536D01*
X110454148Y-61413075D01*
X114974525Y-65933451D01*
X115036623Y-66024104D01*
X115056374Y-66108079D01*
X115059542Y-66107662D01*
X115062100Y-66127092D01*
X115096206Y-66254380D01*
X115096209Y-66254389D01*
X115162097Y-66368510D01*
X115162098Y-66368511D01*
X115162100Y-66368514D01*
X115255286Y-66461700D01*
X115255288Y-66461701D01*
X115255289Y-66461702D01*
X115369410Y-66527590D01*
X115369411Y-66527590D01*
X115369414Y-66527592D01*
X115496708Y-66561700D01*
X115628492Y-66561700D01*
X115755786Y-66527592D01*
X115869914Y-66461700D01*
X115963100Y-66368514D01*
X116028992Y-66254386D01*
X116063100Y-66127092D01*
X116063100Y-65995308D01*
X116028992Y-65868014D01*
X116022053Y-65855996D01*
X115963102Y-65753889D01*
X115963101Y-65753888D01*
X115963100Y-65753886D01*
X115869914Y-65660700D01*
X115869911Y-65660698D01*
X115869910Y-65660697D01*
X115755789Y-65594809D01*
X115755780Y-65594806D01*
X115628492Y-65560700D01*
X115609062Y-65558142D01*
X115609627Y-65553849D01*
X115538265Y-65540509D01*
X115444841Y-65482664D01*
X115434851Y-65473125D01*
X113095723Y-63133997D01*
X110701262Y-60739535D01*
X110701259Y-60739533D01*
X110701256Y-60739531D01*
X110627044Y-60696684D01*
X110627031Y-60696679D01*
X110544255Y-60674500D01*
X110544253Y-60674500D01*
X110188614Y-60674500D01*
X110080603Y-60654309D01*
X109987179Y-60596464D01*
X109922204Y-60511244D01*
X109863999Y-60397012D01*
X109863996Y-60397006D01*
X109757553Y-60250499D01*
X109629501Y-60122447D01*
X109482994Y-60016004D01*
X109444538Y-59996409D01*
X109357468Y-59929385D01*
X109300488Y-59835431D01*
X109281296Y-59727237D01*
X109302484Y-59619417D01*
X109361190Y-59526532D01*
X109444538Y-59463590D01*
X109482994Y-59443996D01*
X109629501Y-59337553D01*
X109757553Y-59209501D01*
X109863996Y-59062994D01*
X109946211Y-58901639D01*
X110002171Y-58729409D01*
X110030500Y-58550546D01*
X110030500Y-58369454D01*
X110002171Y-58190591D01*
X109946211Y-58018361D01*
X109863996Y-57857006D01*
X109757553Y-57710499D01*
X109629501Y-57582447D01*
X109482994Y-57476004D01*
X109444538Y-57456409D01*
X109357468Y-57389385D01*
X109300488Y-57295431D01*
X109281296Y-57187237D01*
X109302484Y-57079417D01*
X109361190Y-56986532D01*
X109444538Y-56923590D01*
X109482994Y-56903996D01*
X109629501Y-56797553D01*
X109757553Y-56669501D01*
X109863996Y-56522994D01*
X109946211Y-56361639D01*
X110002171Y-56189409D01*
X110030500Y-56010546D01*
X110030500Y-55829454D01*
X110030499Y-55829450D01*
X110015223Y-55733000D01*
X110002171Y-55650591D01*
X109946211Y-55478361D01*
X109863996Y-55317006D01*
X109757553Y-55170499D01*
X109629501Y-55042447D01*
X109627979Y-55040925D01*
X109565881Y-54950272D01*
X109540723Y-54843309D01*
X109555904Y-54734480D01*
X109609373Y-54638485D01*
X109693909Y-54568287D01*
X109798095Y-54533367D01*
X109839404Y-54530500D01*
X109849743Y-54530500D01*
X109849748Y-54530500D01*
X109908231Y-54518867D01*
X109974552Y-54474552D01*
X110018867Y-54408231D01*
X110030500Y-54349748D01*
X110030500Y-52410252D01*
X110018867Y-52351769D01*
X110014921Y-52345864D01*
X109992373Y-52312119D01*
X109974552Y-52285448D01*
X109933218Y-52257829D01*
X109908232Y-52241133D01*
X109893610Y-52238224D01*
X109849748Y-52229500D01*
X107910252Y-52229500D01*
X107881010Y-52235316D01*
X107851767Y-52241133D01*
X107785448Y-52285448D01*
X107741133Y-52351767D01*
X107741133Y-52351769D01*
X107729500Y-52410252D01*
X107729500Y-54349748D01*
X107733737Y-54371048D01*
X107741133Y-54408232D01*
X107747989Y-54418492D01*
X107785448Y-54474552D01*
X107826782Y-54502171D01*
X107851767Y-54518866D01*
X107851769Y-54518867D01*
X107910252Y-54530500D01*
X107910257Y-54530500D01*
X107920596Y-54530500D01*
X108028607Y-54550691D01*
X108122031Y-54608536D01*
X108188250Y-54696224D01*
X108218321Y-54801912D01*
X108208182Y-54911325D01*
X108159203Y-55009688D01*
X108132021Y-55040925D01*
X108002452Y-55170493D01*
X108002448Y-55170497D01*
X108002447Y-55170499D01*
X107896004Y-55317006D01*
X107856264Y-55395000D01*
X107813788Y-55478362D01*
X107784270Y-55569212D01*
X107760071Y-55643693D01*
X107757828Y-55650595D01*
X107729500Y-55829450D01*
X107729500Y-56010549D01*
X107747254Y-56122642D01*
X107757829Y-56189409D01*
X107773715Y-56238302D01*
X107808143Y-56344264D01*
X107813789Y-56361639D01*
X107896004Y-56522994D01*
X108002447Y-56669501D01*
X108130499Y-56797553D01*
X108277006Y-56903996D01*
X108309772Y-56920691D01*
X108315461Y-56923590D01*
X108402533Y-56990617D01*
X108459512Y-57084572D01*
X108478703Y-57192765D01*
X108457514Y-57300585D01*
X108398807Y-57393470D01*
X108315461Y-57456410D01*
X108277009Y-57476002D01*
X108130497Y-57582448D01*
X108002448Y-57710497D01*
X107981376Y-57739501D01*
X107896004Y-57857006D01*
X107883542Y-57881464D01*
X107813788Y-58018362D01*
X107775031Y-58137646D01*
X107769787Y-58153789D01*
X107757828Y-58190595D01*
X107729500Y-58369450D01*
X107729500Y-58550549D01*
X107757828Y-58729407D01*
X107797448Y-58851347D01*
X107811621Y-58960312D01*
X107785475Y-59067038D01*
X107724507Y-59155164D01*
X107287837Y-59591835D01*
X107287833Y-59591841D01*
X107244982Y-59666060D01*
X107244981Y-59666063D01*
X107232043Y-59714351D01*
X107222800Y-59748845D01*
X107222800Y-69195955D01*
X107244979Y-69278731D01*
X107244984Y-69278744D01*
X107287831Y-69352956D01*
X107287833Y-69352959D01*
X107287835Y-69352962D01*
X109949316Y-72014443D01*
X112508576Y-74573702D01*
X112570674Y-74664355D01*
X112595832Y-74771318D01*
X112580651Y-74880147D01*
X112527182Y-74976142D01*
X112442646Y-75046340D01*
X112338460Y-75081260D01*
X112238820Y-75078382D01*
X112093621Y-75049500D01*
X112093616Y-75049500D01*
X111906384Y-75049500D01*
X111906381Y-75049500D01*
X111722749Y-75086027D01*
X111549770Y-75157677D01*
X111394092Y-75261697D01*
X111261697Y-75394092D01*
X111157677Y-75549770D01*
X111086027Y-75722749D01*
X111049500Y-75906381D01*
X111049500Y-76093621D01*
X111084113Y-76267632D01*
X111085382Y-76377507D01*
X111046874Y-76480420D01*
X111002283Y-76537388D01*
X108239537Y-79300135D01*
X108239531Y-79300143D01*
X108196684Y-79374356D01*
X108196680Y-79374365D01*
X108180464Y-79434888D01*
X108180463Y-79434890D01*
X108174500Y-79457142D01*
X108174500Y-79750500D01*
X108154309Y-79858511D01*
X108096464Y-79951935D01*
X108008776Y-80018154D01*
X107903088Y-80048225D01*
X107875500Y-80049500D01*
X107780252Y-80049500D01*
X107755231Y-80054477D01*
X107721767Y-80061133D01*
X107655448Y-80105448D01*
X107611133Y-80171767D01*
X107611133Y-80171769D01*
X107599500Y-80230252D01*
X107599500Y-81069748D01*
X107604669Y-81095734D01*
X107611133Y-81128232D01*
X107626916Y-81151852D01*
X107655448Y-81194552D01*
X107705073Y-81227711D01*
X107721767Y-81238866D01*
X107721769Y-81238867D01*
X107780252Y-81250500D01*
X107780257Y-81250500D01*
X109019743Y-81250500D01*
X109019748Y-81250500D01*
X109078231Y-81238867D01*
X109144552Y-81194552D01*
X109188867Y-81128231D01*
X109188867Y-81128230D01*
X109202130Y-81108382D01*
X109278927Y-81029792D01*
X109378927Y-80984251D01*
X109450738Y-80975500D01*
X113549262Y-80975500D01*
X113657273Y-80995691D01*
X113750697Y-81053536D01*
X113797870Y-81108382D01*
X113855447Y-81194551D01*
X113921767Y-81238866D01*
X113921769Y-81238867D01*
X113980252Y-81250500D01*
X113980257Y-81250500D01*
X115193900Y-81250500D01*
X115301911Y-81270691D01*
X115395335Y-81328536D01*
X115461554Y-81416224D01*
X115491625Y-81521912D01*
X115492900Y-81549500D01*
X115492900Y-81796555D01*
X115515079Y-81879331D01*
X115515084Y-81879344D01*
X115557931Y-81953556D01*
X115557933Y-81953559D01*
X115557935Y-81953562D01*
X116291039Y-82686665D01*
X116291041Y-82686666D01*
X116365262Y-82729518D01*
X116448046Y-82751701D01*
X116448047Y-82751701D01*
X116533754Y-82751701D01*
X116612542Y-82730589D01*
X116689932Y-82720400D01*
X117630489Y-82720400D01*
X117738500Y-82740591D01*
X117831924Y-82798436D01*
X117841914Y-82807975D01*
X118358938Y-83325000D01*
X118421036Y-83415653D01*
X118446194Y-83522616D01*
X118431013Y-83631445D01*
X118388089Y-83713976D01*
X118297201Y-83837125D01*
X118290401Y-83849992D01*
X118222078Y-83936050D01*
X118127280Y-83991615D01*
X118018811Y-84009183D01*
X117911321Y-83986382D01*
X117819326Y-83926290D01*
X117755251Y-83837023D01*
X117745904Y-83814752D01*
X117743351Y-83807907D01*
X117657191Y-83692813D01*
X117657186Y-83692808D01*
X117542090Y-83606647D01*
X117407381Y-83556403D01*
X117347828Y-83550000D01*
X117275000Y-83550000D01*
X117275000Y-85450000D01*
X117347823Y-85450000D01*
X117347828Y-85449999D01*
X117407379Y-85443596D01*
X117407382Y-85443596D01*
X117542090Y-85393352D01*
X117657186Y-85307191D01*
X117657191Y-85307186D01*
X117743349Y-85192095D01*
X117745902Y-85185250D01*
X117802562Y-85091103D01*
X117889406Y-85023781D01*
X117994705Y-84992376D01*
X118104238Y-85001131D01*
X118203212Y-85048862D01*
X118278260Y-85129123D01*
X118290403Y-85150010D01*
X118297204Y-85162879D01*
X118313715Y-85185250D01*
X118377850Y-85272150D01*
X118464436Y-85336053D01*
X118487119Y-85352794D01*
X118603029Y-85393352D01*
X118615301Y-85397646D01*
X118645734Y-85400500D01*
X118645736Y-85400500D01*
X119404264Y-85400500D01*
X119404266Y-85400500D01*
X119434699Y-85397646D01*
X119493002Y-85377244D01*
X119562880Y-85352794D01*
X119562880Y-85352793D01*
X119562882Y-85352793D01*
X119672150Y-85272150D01*
X119752793Y-85162882D01*
X119797646Y-85034699D01*
X119800500Y-85004266D01*
X119800500Y-84997828D01*
X121150000Y-84997828D01*
X121156403Y-85057379D01*
X121156403Y-85057382D01*
X121206647Y-85192090D01*
X121292808Y-85307186D01*
X121292813Y-85307191D01*
X121407909Y-85393352D01*
X121542618Y-85443596D01*
X121602171Y-85449999D01*
X121602177Y-85450000D01*
X121675000Y-85450000D01*
X121675000Y-84800000D01*
X121150000Y-84800000D01*
X121150000Y-84997828D01*
X119800500Y-84997828D01*
X119800500Y-84002171D01*
X121150000Y-84002171D01*
X121150000Y-84200000D01*
X121675000Y-84200000D01*
X121675000Y-83550000D01*
X121602171Y-83550000D01*
X121542620Y-83556403D01*
X121542617Y-83556403D01*
X121407909Y-83606647D01*
X121292813Y-83692808D01*
X121292808Y-83692813D01*
X121206647Y-83807909D01*
X121156403Y-83942617D01*
X121156403Y-83942620D01*
X121150000Y-84002171D01*
X119800500Y-84002171D01*
X119800500Y-83995734D01*
X119797646Y-83965301D01*
X119783677Y-83925379D01*
X119752794Y-83837119D01*
X119731234Y-83807907D01*
X119672150Y-83727850D01*
X119608245Y-83680686D01*
X119562880Y-83647205D01*
X119510685Y-83628942D01*
X119415404Y-83574211D01*
X119346328Y-83488756D01*
X119333197Y-83461142D01*
X119328318Y-83449365D01*
X119328318Y-83449362D01*
X119328315Y-83449356D01*
X119285468Y-83375142D01*
X119285462Y-83375135D01*
X119224865Y-83314538D01*
X119224863Y-83314536D01*
X119224862Y-83314535D01*
X119224859Y-83314533D01*
X119154219Y-83273749D01*
X119092295Y-83226233D01*
X118871493Y-83005431D01*
X118593432Y-82727370D01*
X118531335Y-82636720D01*
X118506177Y-82529756D01*
X118521358Y-82420928D01*
X118574827Y-82324932D01*
X118645165Y-82266523D01*
X118644853Y-82266099D01*
X118652258Y-82260633D01*
X118659363Y-82254734D01*
X118662721Y-82252911D01*
X118662879Y-82252793D01*
X118662882Y-82252793D01*
X118772150Y-82172150D01*
X118852793Y-82062882D01*
X118859252Y-82044425D01*
X118903655Y-81917527D01*
X118907016Y-81918703D01*
X118937614Y-81846286D01*
X119014056Y-81767351D01*
X119113851Y-81721361D01*
X119188611Y-81716701D01*
X119188611Y-81712500D01*
X119339992Y-81712500D01*
X119467286Y-81678392D01*
X119581414Y-81612500D01*
X119581416Y-81612497D01*
X119596957Y-81600573D01*
X119599592Y-81604007D01*
X119659491Y-81562977D01*
X119766454Y-81537819D01*
X119780263Y-81537500D01*
X121800500Y-81537500D01*
X121908511Y-81557691D01*
X122001935Y-81615536D01*
X122068154Y-81703224D01*
X122098225Y-81808912D01*
X122099500Y-81836500D01*
X122099500Y-81904266D01*
X122102354Y-81934698D01*
X122102355Y-81934704D01*
X122147205Y-82062880D01*
X122166226Y-82088652D01*
X122227850Y-82172150D01*
X122314436Y-82236053D01*
X122337119Y-82252794D01*
X122465295Y-82297644D01*
X122465301Y-82297646D01*
X122495734Y-82300500D01*
X122495736Y-82300500D01*
X123451600Y-82300500D01*
X123559611Y-82320691D01*
X123653035Y-82378536D01*
X123719254Y-82466224D01*
X123749325Y-82571912D01*
X123750600Y-82599500D01*
X123750600Y-83342858D01*
X123730409Y-83450869D01*
X123672564Y-83544293D01*
X123584876Y-83610512D01*
X123550355Y-83625079D01*
X123487118Y-83647206D01*
X123377850Y-83727850D01*
X123297202Y-83837124D01*
X123290401Y-83849992D01*
X123222078Y-83936050D01*
X123127280Y-83991615D01*
X123018811Y-84009183D01*
X122911321Y-83986382D01*
X122819326Y-83926290D01*
X122755251Y-83837023D01*
X122745904Y-83814752D01*
X122743351Y-83807907D01*
X122657191Y-83692813D01*
X122657186Y-83692808D01*
X122542090Y-83606647D01*
X122407381Y-83556403D01*
X122347828Y-83550000D01*
X122275000Y-83550000D01*
X122275000Y-85450000D01*
X122347823Y-85450000D01*
X122347828Y-85449999D01*
X122407379Y-85443596D01*
X122407382Y-85443596D01*
X122542090Y-85393352D01*
X122657186Y-85307191D01*
X122657191Y-85307186D01*
X122743349Y-85192095D01*
X122745902Y-85185250D01*
X122802562Y-85091103D01*
X122889406Y-85023781D01*
X122994705Y-84992376D01*
X123104238Y-85001131D01*
X123203212Y-85048862D01*
X123278260Y-85129123D01*
X123290403Y-85150010D01*
X123297204Y-85162879D01*
X123313715Y-85185250D01*
X123377850Y-85272150D01*
X123464436Y-85336053D01*
X123487119Y-85352794D01*
X123603029Y-85393352D01*
X123615301Y-85397646D01*
X123645734Y-85400500D01*
X123645736Y-85400500D01*
X124404264Y-85400500D01*
X124404266Y-85400500D01*
X124434699Y-85397646D01*
X124493002Y-85377244D01*
X124562880Y-85352794D01*
X124562880Y-85352793D01*
X124562882Y-85352793D01*
X124672150Y-85272150D01*
X124752793Y-85162882D01*
X124797646Y-85034699D01*
X124800500Y-85004266D01*
X124800500Y-84997828D01*
X126150000Y-84997828D01*
X126156403Y-85057379D01*
X126156403Y-85057382D01*
X126206647Y-85192090D01*
X126292808Y-85307186D01*
X126292813Y-85307191D01*
X126407909Y-85393352D01*
X126542618Y-85443596D01*
X126602171Y-85449999D01*
X126602177Y-85450000D01*
X126675000Y-85450000D01*
X126675000Y-84800000D01*
X126150000Y-84800000D01*
X126150000Y-84997828D01*
X124800500Y-84997828D01*
X124800500Y-84002171D01*
X126150000Y-84002171D01*
X126150000Y-84200000D01*
X126675000Y-84200000D01*
X126675000Y-83550000D01*
X126602171Y-83550000D01*
X126542620Y-83556403D01*
X126542617Y-83556403D01*
X126407909Y-83606647D01*
X126292813Y-83692808D01*
X126292808Y-83692813D01*
X126206647Y-83807909D01*
X126156403Y-83942617D01*
X126156403Y-83942620D01*
X126150000Y-84002171D01*
X124800500Y-84002171D01*
X124800500Y-83995734D01*
X124797646Y-83965301D01*
X124783677Y-83925379D01*
X124752794Y-83837119D01*
X124731234Y-83807907D01*
X124672150Y-83727850D01*
X124562882Y-83647207D01*
X124562878Y-83647204D01*
X124560880Y-83646148D01*
X124553391Y-83640202D01*
X124544853Y-83633901D01*
X124545075Y-83633600D01*
X124474822Y-83577824D01*
X124419256Y-83483027D01*
X124401600Y-83381801D01*
X124401600Y-80533247D01*
X124379418Y-80450462D01*
X124379418Y-80450461D01*
X124336565Y-80376238D01*
X123988075Y-80027748D01*
X123925977Y-79937095D01*
X123900819Y-79830132D01*
X123900500Y-79816323D01*
X123900500Y-79132798D01*
X123920691Y-79024787D01*
X123978536Y-78931363D01*
X124066224Y-78865144D01*
X124171912Y-78835073D01*
X124281325Y-78845212D01*
X124320426Y-78861764D01*
X124320912Y-78860593D01*
X124339007Y-78868088D01*
X124339014Y-78868092D01*
X124466308Y-78902200D01*
X124466315Y-78902200D01*
X124485738Y-78904758D01*
X124485172Y-78909051D01*
X124556534Y-78922391D01*
X124649958Y-78980236D01*
X124659948Y-78989775D01*
X127011925Y-81341752D01*
X127074023Y-81432405D01*
X127099181Y-81539368D01*
X127099500Y-81553177D01*
X127099500Y-81904266D01*
X127102354Y-81934698D01*
X127102355Y-81934704D01*
X127147205Y-82062880D01*
X127166226Y-82088652D01*
X127227850Y-82172150D01*
X127314436Y-82236053D01*
X127337119Y-82252794D01*
X127465295Y-82297644D01*
X127465301Y-82297646D01*
X127495734Y-82300500D01*
X127495736Y-82300500D01*
X128451600Y-82300500D01*
X128559611Y-82320691D01*
X128653035Y-82378536D01*
X128719254Y-82466224D01*
X128749325Y-82571912D01*
X128750600Y-82599500D01*
X128750600Y-83342858D01*
X128730409Y-83450869D01*
X128672564Y-83544293D01*
X128584876Y-83610512D01*
X128550355Y-83625079D01*
X128487118Y-83647206D01*
X128377850Y-83727850D01*
X128297202Y-83837124D01*
X128290401Y-83849992D01*
X128222078Y-83936050D01*
X128127280Y-83991615D01*
X128018811Y-84009183D01*
X127911321Y-83986382D01*
X127819326Y-83926290D01*
X127755251Y-83837023D01*
X127745904Y-83814752D01*
X127743351Y-83807907D01*
X127657191Y-83692813D01*
X127657186Y-83692808D01*
X127542090Y-83606647D01*
X127407381Y-83556403D01*
X127347828Y-83550000D01*
X127275000Y-83550000D01*
X127275000Y-85450000D01*
X127347823Y-85450000D01*
X127347828Y-85449999D01*
X127407379Y-85443596D01*
X127407382Y-85443596D01*
X127542090Y-85393352D01*
X127657186Y-85307191D01*
X127657191Y-85307186D01*
X127743349Y-85192095D01*
X127745902Y-85185250D01*
X127802562Y-85091103D01*
X127889406Y-85023781D01*
X127994705Y-84992376D01*
X128104238Y-85001131D01*
X128203212Y-85048862D01*
X128278260Y-85129123D01*
X128290403Y-85150010D01*
X128297204Y-85162879D01*
X128313715Y-85185250D01*
X128377850Y-85272150D01*
X128464436Y-85336053D01*
X128487119Y-85352794D01*
X128603029Y-85393352D01*
X128615301Y-85397646D01*
X128645734Y-85400500D01*
X128645736Y-85400500D01*
X129404264Y-85400500D01*
X129404266Y-85400500D01*
X129434699Y-85397646D01*
X129493002Y-85377244D01*
X129562880Y-85352794D01*
X129562880Y-85352793D01*
X129562882Y-85352793D01*
X129672150Y-85272150D01*
X129752793Y-85162882D01*
X129797646Y-85034699D01*
X129800500Y-85004266D01*
X129800500Y-84997828D01*
X131150000Y-84997828D01*
X131156403Y-85057379D01*
X131156403Y-85057382D01*
X131206647Y-85192090D01*
X131292808Y-85307186D01*
X131292813Y-85307191D01*
X131407909Y-85393352D01*
X131542618Y-85443596D01*
X131602171Y-85449999D01*
X131602177Y-85450000D01*
X131675000Y-85450000D01*
X131675000Y-84800000D01*
X131150000Y-84800000D01*
X131150000Y-84997828D01*
X129800500Y-84997828D01*
X129800500Y-84002171D01*
X131150000Y-84002171D01*
X131150000Y-84200000D01*
X131675000Y-84200000D01*
X131675000Y-83550000D01*
X131602171Y-83550000D01*
X131542620Y-83556403D01*
X131542617Y-83556403D01*
X131407909Y-83606647D01*
X131292813Y-83692808D01*
X131292808Y-83692813D01*
X131206647Y-83807909D01*
X131156403Y-83942617D01*
X131156403Y-83942620D01*
X131150000Y-84002171D01*
X129800500Y-84002171D01*
X129800500Y-83995734D01*
X129797646Y-83965301D01*
X129783677Y-83925379D01*
X129752794Y-83837119D01*
X129731234Y-83807907D01*
X129672150Y-83727850D01*
X129562882Y-83647207D01*
X129562878Y-83647204D01*
X129560880Y-83646148D01*
X129553391Y-83640202D01*
X129544853Y-83633901D01*
X129545075Y-83633600D01*
X129474822Y-83577824D01*
X129419256Y-83483027D01*
X129401600Y-83381801D01*
X129401600Y-80533247D01*
X129379418Y-80450462D01*
X129379418Y-80450461D01*
X129336565Y-80376238D01*
X128988075Y-80027748D01*
X128925977Y-79937095D01*
X128900819Y-79830132D01*
X128900500Y-79816323D01*
X128900500Y-79095734D01*
X128897646Y-79065301D01*
X128897644Y-79065295D01*
X128852794Y-78937119D01*
X128815844Y-78887054D01*
X128772150Y-78827850D01*
X128708245Y-78780686D01*
X128662880Y-78747205D01*
X128534704Y-78702355D01*
X128534699Y-78702354D01*
X128504266Y-78699500D01*
X127495734Y-78699500D01*
X127495733Y-78699500D01*
X127465301Y-78702354D01*
X127465295Y-78702355D01*
X127337119Y-78747205D01*
X127227850Y-78827850D01*
X127147205Y-78937119D01*
X127102355Y-79065295D01*
X127102354Y-79065301D01*
X127099500Y-79095734D01*
X127099500Y-79786823D01*
X127079309Y-79894834D01*
X127021464Y-79988258D01*
X126933776Y-80054477D01*
X126828088Y-80084548D01*
X126718675Y-80074409D01*
X126620312Y-80025430D01*
X126589075Y-79998248D01*
X125120275Y-78529448D01*
X125058177Y-78438795D01*
X125038426Y-78354820D01*
X125035258Y-78355238D01*
X125032700Y-78335814D01*
X125032700Y-78335808D01*
X124998592Y-78208514D01*
X124972583Y-78163466D01*
X124936066Y-78059834D01*
X124939449Y-77950004D01*
X124982280Y-77848813D01*
X125058772Y-77769927D01*
X125065414Y-77765359D01*
X125105908Y-77738302D01*
X125238302Y-77605908D01*
X125342322Y-77450231D01*
X125413973Y-77277251D01*
X125450500Y-77093616D01*
X125450500Y-76906384D01*
X125413973Y-76722749D01*
X125342322Y-76549769D01*
X125238302Y-76394092D01*
X125105908Y-76261698D01*
X125074205Y-76240515D01*
X124987793Y-76182776D01*
X124950231Y-76157678D01*
X124777251Y-76086027D01*
X124673054Y-76065301D01*
X124593618Y-76049500D01*
X124593616Y-76049500D01*
X124406384Y-76049500D01*
X124406381Y-76049500D01*
X124266035Y-76077417D01*
X124232366Y-76084114D01*
X124223629Y-76084214D01*
X124215344Y-76086992D01*
X124168940Y-76084846D01*
X124122492Y-76085383D01*
X124114307Y-76082320D01*
X124105579Y-76081917D01*
X124063085Y-76063154D01*
X124019579Y-76046875D01*
X124010988Y-76040151D01*
X124005059Y-76037533D01*
X123962610Y-76002284D01*
X123887062Y-75926736D01*
X123731790Y-75771464D01*
X123690324Y-75729998D01*
X126559999Y-75729998D01*
X126559999Y-75730001D01*
X126602272Y-76159199D01*
X126720750Y-76549769D01*
X126727465Y-76571903D01*
X126929828Y-76950500D01*
X126930769Y-76952259D01*
X127174710Y-77249500D01*
X127204365Y-77285634D01*
X127236577Y-77312070D01*
X127537739Y-77559229D01*
X127537742Y-77559230D01*
X127537745Y-77559233D01*
X127918096Y-77762534D01*
X128330801Y-77887727D01*
X128713106Y-77925381D01*
X128759998Y-77930000D01*
X128759999Y-77930000D01*
X128760000Y-77930000D01*
X128802273Y-77925836D01*
X129189198Y-77887727D01*
X129601903Y-77762534D01*
X129652384Y-77735551D01*
X129757157Y-77702441D01*
X129866818Y-77709416D01*
X129966554Y-77755534D01*
X130042895Y-77834566D01*
X130085532Y-77935839D01*
X130088705Y-78045675D01*
X130052275Y-78148742D01*
X130021810Y-78201508D01*
X130021806Y-78201519D01*
X129987700Y-78328807D01*
X129987700Y-78460592D01*
X130021806Y-78587880D01*
X130021809Y-78587889D01*
X130087698Y-78702012D01*
X130099627Y-78717557D01*
X130096192Y-78720192D01*
X130137223Y-78780091D01*
X130162381Y-78887054D01*
X130162700Y-78900863D01*
X130162700Y-79031055D01*
X130184879Y-79113831D01*
X130184884Y-79113844D01*
X130227731Y-79188056D01*
X130227733Y-79188059D01*
X130227735Y-79188062D01*
X131145121Y-80105448D01*
X132011925Y-80972251D01*
X132074023Y-81062904D01*
X132099181Y-81169867D01*
X132099500Y-81183676D01*
X132099500Y-81904266D01*
X132102354Y-81934698D01*
X132102355Y-81934704D01*
X132147205Y-82062880D01*
X132166226Y-82088652D01*
X132227850Y-82172150D01*
X132314436Y-82236053D01*
X132337119Y-82252794D01*
X132465295Y-82297644D01*
X132465301Y-82297646D01*
X132495734Y-82300500D01*
X132770521Y-82300500D01*
X132878532Y-82320691D01*
X132971956Y-82378536D01*
X133038175Y-82466224D01*
X133068246Y-82571912D01*
X133058107Y-82681325D01*
X133029461Y-82749000D01*
X133027902Y-82751701D01*
X133026483Y-82754159D01*
X133026479Y-82754168D01*
X133004300Y-82836944D01*
X133004300Y-82922655D01*
X133026479Y-83005431D01*
X133026484Y-83005444D01*
X133069331Y-83079656D01*
X133069333Y-83079659D01*
X133069335Y-83079662D01*
X133129938Y-83140265D01*
X133200586Y-83181054D01*
X133262506Y-83228567D01*
X133358938Y-83324999D01*
X133421036Y-83415652D01*
X133446194Y-83522615D01*
X133431013Y-83631444D01*
X133388089Y-83713974D01*
X133297203Y-83837121D01*
X133290401Y-83849992D01*
X133222078Y-83936050D01*
X133127280Y-83991615D01*
X133018811Y-84009183D01*
X132911321Y-83986382D01*
X132819326Y-83926290D01*
X132755251Y-83837023D01*
X132745904Y-83814752D01*
X132743351Y-83807907D01*
X132657191Y-83692813D01*
X132657186Y-83692808D01*
X132542090Y-83606647D01*
X132407381Y-83556403D01*
X132347828Y-83550000D01*
X132275000Y-83550000D01*
X132275000Y-85450000D01*
X132347823Y-85450000D01*
X132347828Y-85449999D01*
X132407379Y-85443596D01*
X132407382Y-85443596D01*
X132542090Y-85393352D01*
X132657186Y-85307191D01*
X132657191Y-85307186D01*
X132743349Y-85192095D01*
X132745902Y-85185250D01*
X132802562Y-85091103D01*
X132889406Y-85023781D01*
X132994705Y-84992376D01*
X133104238Y-85001131D01*
X133203212Y-85048862D01*
X133278260Y-85129123D01*
X133290403Y-85150010D01*
X133297204Y-85162879D01*
X133313715Y-85185250D01*
X133377850Y-85272150D01*
X133464436Y-85336053D01*
X133487119Y-85352794D01*
X133603029Y-85393352D01*
X133615301Y-85397646D01*
X133645734Y-85400500D01*
X133645736Y-85400500D01*
X134404264Y-85400500D01*
X134404266Y-85400500D01*
X134434699Y-85397646D01*
X134493002Y-85377244D01*
X134562880Y-85352794D01*
X134562880Y-85352793D01*
X134562882Y-85352793D01*
X134672150Y-85272150D01*
X134752793Y-85162882D01*
X134797646Y-85034699D01*
X134800500Y-85004266D01*
X134800500Y-84997828D01*
X136150000Y-84997828D01*
X136156403Y-85057379D01*
X136156403Y-85057382D01*
X136206647Y-85192090D01*
X136292808Y-85307186D01*
X136292813Y-85307191D01*
X136407909Y-85393352D01*
X136542618Y-85443596D01*
X136602171Y-85449999D01*
X136602177Y-85450000D01*
X136675000Y-85450000D01*
X136675000Y-84800000D01*
X136150000Y-84800000D01*
X136150000Y-84997828D01*
X134800500Y-84997828D01*
X134800500Y-84002171D01*
X136150000Y-84002171D01*
X136150000Y-84200000D01*
X136675000Y-84200000D01*
X136675000Y-83550000D01*
X136602171Y-83550000D01*
X136542620Y-83556403D01*
X136542617Y-83556403D01*
X136407909Y-83606647D01*
X136292813Y-83692808D01*
X136292808Y-83692813D01*
X136206647Y-83807909D01*
X136156403Y-83942617D01*
X136156403Y-83942620D01*
X136150000Y-84002171D01*
X134800500Y-84002171D01*
X134800500Y-83995734D01*
X134797646Y-83965301D01*
X134783677Y-83925379D01*
X134752794Y-83837119D01*
X134731234Y-83807907D01*
X134672150Y-83727850D01*
X134608245Y-83680686D01*
X134562880Y-83647205D01*
X134510685Y-83628942D01*
X134415404Y-83574211D01*
X134346328Y-83488756D01*
X134333197Y-83461142D01*
X134328318Y-83449365D01*
X134328318Y-83449362D01*
X134328315Y-83449356D01*
X134285468Y-83375142D01*
X134285462Y-83375135D01*
X134224865Y-83314538D01*
X134224862Y-83314535D01*
X134154216Y-83273747D01*
X134092294Y-83226233D01*
X133979419Y-83113358D01*
X133917321Y-83022705D01*
X133892163Y-82915742D01*
X133907344Y-82806913D01*
X133960813Y-82710918D01*
X133979419Y-82690508D01*
X134140171Y-82529756D01*
X134334265Y-82335662D01*
X134377118Y-82261439D01*
X134399300Y-82178653D01*
X134399300Y-82092947D01*
X134399300Y-80640762D01*
X134399301Y-80640749D01*
X134399301Y-80530945D01*
X134377120Y-80448168D01*
X134377119Y-80448165D01*
X134377118Y-80448162D01*
X134358975Y-80416738D01*
X134334265Y-80373938D01*
X134273662Y-80313335D01*
X134263225Y-80302898D01*
X134263214Y-80302888D01*
X133988075Y-80027749D01*
X133925977Y-79937096D01*
X133900819Y-79830133D01*
X133900500Y-79816324D01*
X133900500Y-79095734D01*
X133897646Y-79065301D01*
X133897644Y-79065295D01*
X133852794Y-78937119D01*
X133815844Y-78887054D01*
X133772150Y-78827850D01*
X133708245Y-78780686D01*
X133662880Y-78747205D01*
X133534704Y-78702355D01*
X133534699Y-78702354D01*
X133504266Y-78699500D01*
X132495734Y-78699500D01*
X132495733Y-78699500D01*
X132465301Y-78702354D01*
X132465295Y-78702355D01*
X132337119Y-78747205D01*
X132227850Y-78827850D01*
X132147205Y-78937119D01*
X132102355Y-79065295D01*
X132102354Y-79065301D01*
X132099500Y-79095734D01*
X132099500Y-79417323D01*
X132079309Y-79525334D01*
X132021464Y-79618758D01*
X131933776Y-79684977D01*
X131828088Y-79715048D01*
X131718675Y-79704909D01*
X131620312Y-79655930D01*
X131589075Y-79628748D01*
X130968078Y-79007751D01*
X130905980Y-78917098D01*
X130880822Y-78810135D01*
X130896003Y-78701306D01*
X130920557Y-78646835D01*
X130954592Y-78587886D01*
X130988700Y-78460592D01*
X130988700Y-78328808D01*
X130954592Y-78201514D01*
X130954184Y-78200808D01*
X130888702Y-78087389D01*
X130888701Y-78087388D01*
X130888700Y-78087386D01*
X130795514Y-77994200D01*
X130795511Y-77994198D01*
X130795510Y-77994197D01*
X130681389Y-77928309D01*
X130681380Y-77928306D01*
X130554092Y-77894200D01*
X130422308Y-77894200D01*
X130409743Y-77894200D01*
X130301732Y-77874009D01*
X130208308Y-77816164D01*
X130142089Y-77728476D01*
X130112018Y-77622788D01*
X130122157Y-77513375D01*
X130171136Y-77415012D01*
X130220059Y-77364071D01*
X130272917Y-77320691D01*
X130315634Y-77285634D01*
X130589233Y-76952254D01*
X130792534Y-76571903D01*
X130917727Y-76159198D01*
X130950362Y-75827850D01*
X130959999Y-75730002D01*
X130959999Y-75729997D01*
X130926915Y-75394092D01*
X130917727Y-75300801D01*
X130906378Y-75263390D01*
X130832539Y-75019976D01*
X130792534Y-74888096D01*
X130589233Y-74507745D01*
X130589230Y-74507742D01*
X130589229Y-74507739D01*
X130315638Y-74174370D01*
X130315634Y-74174365D01*
X130315628Y-74174360D01*
X129982259Y-73900769D01*
X129982255Y-73900766D01*
X129982254Y-73900766D01*
X129601903Y-73697465D01*
X129601901Y-73697464D01*
X129601898Y-73697463D01*
X129189204Y-73572273D01*
X129189195Y-73572271D01*
X128760002Y-73530000D01*
X128759996Y-73530000D01*
X128330803Y-73572271D01*
X128330794Y-73572273D01*
X127918100Y-73697463D01*
X127918093Y-73697466D01*
X127537739Y-73900769D01*
X127204370Y-74174360D01*
X127204360Y-74174370D01*
X126930769Y-74507739D01*
X126727466Y-74888093D01*
X126727463Y-74888100D01*
X126602272Y-75300799D01*
X126559999Y-75729998D01*
X123690324Y-75729998D01*
X123529275Y-75568948D01*
X123467176Y-75478295D01*
X123442019Y-75371331D01*
X123441700Y-75357523D01*
X123441700Y-74495413D01*
X123461891Y-74387402D01*
X123519736Y-74293978D01*
X123607424Y-74227759D01*
X123713112Y-74197688D01*
X123822525Y-74207827D01*
X123906813Y-74246802D01*
X124049769Y-74342322D01*
X124222749Y-74413973D01*
X124406384Y-74450500D01*
X124593616Y-74450500D01*
X124777251Y-74413973D01*
X124950231Y-74342322D01*
X125105908Y-74238302D01*
X125238302Y-74105908D01*
X125342322Y-73950231D01*
X125413973Y-73777251D01*
X125450500Y-73593616D01*
X125450500Y-73406384D01*
X125413973Y-73222749D01*
X125342322Y-73049769D01*
X125238302Y-72894092D01*
X125105908Y-72761698D01*
X125105906Y-72761696D01*
X124958384Y-72663125D01*
X124879794Y-72586329D01*
X124834252Y-72486329D01*
X124825500Y-72414516D01*
X124825500Y-70638400D01*
X124845691Y-70530389D01*
X124903536Y-70436965D01*
X124991224Y-70370746D01*
X125096912Y-70340675D01*
X125124500Y-70339400D01*
X125129092Y-70339400D01*
X125256386Y-70305292D01*
X125370514Y-70239400D01*
X125463700Y-70146214D01*
X125529592Y-70032086D01*
X125563700Y-69904792D01*
X125563700Y-69773008D01*
X125529592Y-69645714D01*
X125505505Y-69603995D01*
X125463702Y-69531589D01*
X125463701Y-69531588D01*
X125463700Y-69531586D01*
X125370514Y-69438400D01*
X125370511Y-69438398D01*
X125370510Y-69438397D01*
X125321929Y-69410349D01*
X125238484Y-69338858D01*
X125186500Y-69242050D01*
X125172997Y-69133001D01*
X125187064Y-69059013D01*
X125188860Y-69053485D01*
X125242171Y-68889409D01*
X125270500Y-68710546D01*
X125270500Y-68529454D01*
X125242171Y-68350591D01*
X125186211Y-68178361D01*
X125103996Y-68017006D01*
X124997553Y-67870499D01*
X124869501Y-67742447D01*
X124722994Y-67636004D01*
X124684538Y-67616409D01*
X124597468Y-67549385D01*
X124540488Y-67455431D01*
X124521296Y-67347237D01*
X124542484Y-67239417D01*
X124601190Y-67146532D01*
X124684538Y-67083590D01*
X124722994Y-67063996D01*
X124869501Y-66957553D01*
X124997553Y-66829501D01*
X125103996Y-66682994D01*
X125186211Y-66521639D01*
X125242171Y-66349409D01*
X125270500Y-66170546D01*
X125270500Y-65989454D01*
X125256633Y-65901901D01*
X125259678Y-65792064D01*
X125302196Y-65690742D01*
X125378445Y-65611620D01*
X125478127Y-65565386D01*
X125587780Y-65558283D01*
X125692594Y-65591271D01*
X125763377Y-65643704D01*
X134928225Y-74808551D01*
X134990323Y-74899204D01*
X135015481Y-75006167D01*
X135015800Y-75019976D01*
X135015800Y-78884155D01*
X135037979Y-78966931D01*
X135037984Y-78966944D01*
X135080831Y-79041156D01*
X135080833Y-79041159D01*
X135080835Y-79041162D01*
X136089187Y-80049514D01*
X137011925Y-80972251D01*
X137074023Y-81062904D01*
X137099181Y-81169867D01*
X137099500Y-81183676D01*
X137099500Y-81904266D01*
X137102354Y-81934698D01*
X137102355Y-81934704D01*
X137147205Y-82062880D01*
X137166226Y-82088652D01*
X137227850Y-82172150D01*
X137314436Y-82236053D01*
X137337119Y-82252794D01*
X137465295Y-82297644D01*
X137465301Y-82297646D01*
X137495734Y-82300500D01*
X137495736Y-82300500D01*
X138492100Y-82300500D01*
X138600111Y-82320691D01*
X138693535Y-82378536D01*
X138759754Y-82466224D01*
X138789825Y-82571912D01*
X138791100Y-82599500D01*
X138791100Y-83328687D01*
X138770909Y-83436698D01*
X138713064Y-83530122D01*
X138625376Y-83596341D01*
X138590853Y-83610908D01*
X138487119Y-83647205D01*
X138377850Y-83727850D01*
X138297202Y-83837124D01*
X138290401Y-83849992D01*
X138222078Y-83936050D01*
X138127280Y-83991615D01*
X138018811Y-84009183D01*
X137911321Y-83986382D01*
X137819326Y-83926290D01*
X137755251Y-83837023D01*
X137745904Y-83814752D01*
X137743351Y-83807907D01*
X137657191Y-83692813D01*
X137657186Y-83692808D01*
X137542090Y-83606647D01*
X137407381Y-83556403D01*
X137347828Y-83550000D01*
X137275000Y-83550000D01*
X137275000Y-85450000D01*
X137347823Y-85450000D01*
X137347828Y-85449999D01*
X137407379Y-85443596D01*
X137407382Y-85443596D01*
X137542090Y-85393352D01*
X137657186Y-85307191D01*
X137657191Y-85307186D01*
X137743349Y-85192095D01*
X137745902Y-85185250D01*
X137802562Y-85091103D01*
X137889406Y-85023781D01*
X137994705Y-84992376D01*
X138104238Y-85001131D01*
X138203212Y-85048862D01*
X138278260Y-85129123D01*
X138290403Y-85150010D01*
X138297204Y-85162879D01*
X138313715Y-85185250D01*
X138377850Y-85272150D01*
X138464436Y-85336053D01*
X138487119Y-85352794D01*
X138603029Y-85393352D01*
X138615301Y-85397646D01*
X138645734Y-85400500D01*
X138645736Y-85400500D01*
X139404264Y-85400500D01*
X139404266Y-85400500D01*
X139434699Y-85397646D01*
X139493002Y-85377244D01*
X139562880Y-85352794D01*
X139562880Y-85352793D01*
X139562882Y-85352793D01*
X139672150Y-85272150D01*
X139752793Y-85162882D01*
X139797646Y-85034699D01*
X139800500Y-85004266D01*
X139800500Y-83995734D01*
X139797646Y-83965301D01*
X139783677Y-83925379D01*
X139752794Y-83837119D01*
X139712471Y-83782484D01*
X139672150Y-83727850D01*
X139672149Y-83727849D01*
X139563548Y-83647698D01*
X139488632Y-83567313D01*
X139447813Y-83465294D01*
X139442100Y-83407123D01*
X139442100Y-80573747D01*
X139438552Y-80560506D01*
X139438552Y-80560505D01*
X139430458Y-80530300D01*
X139419918Y-80490961D01*
X139377065Y-80416738D01*
X138988075Y-80027748D01*
X138925977Y-79937095D01*
X138900819Y-79830132D01*
X138900500Y-79816323D01*
X138900500Y-79095734D01*
X138897646Y-79065301D01*
X138897644Y-79065295D01*
X138852794Y-78937119D01*
X138815844Y-78887054D01*
X138772150Y-78827850D01*
X138708245Y-78780686D01*
X138662880Y-78747205D01*
X138534704Y-78702355D01*
X138534699Y-78702354D01*
X138504266Y-78699500D01*
X137495734Y-78699500D01*
X137495733Y-78699500D01*
X137465301Y-78702354D01*
X137465295Y-78702355D01*
X137337119Y-78747205D01*
X137227850Y-78827850D01*
X137147205Y-78937119D01*
X137102355Y-79065295D01*
X137102354Y-79065301D01*
X137099500Y-79095734D01*
X137099500Y-79417323D01*
X137079309Y-79525334D01*
X137021464Y-79618758D01*
X136933776Y-79684977D01*
X136828088Y-79715048D01*
X136718675Y-79704909D01*
X136620312Y-79655930D01*
X136589075Y-79628748D01*
X135754375Y-78794048D01*
X135692277Y-78703395D01*
X135667119Y-78596432D01*
X135666800Y-78582623D01*
X135666800Y-74878927D01*
X135666800Y-74804156D01*
X135666801Y-74804153D01*
X135666801Y-74718447D01*
X135644618Y-74635662D01*
X135636608Y-74621789D01*
X135601765Y-74561438D01*
X135541162Y-74500835D01*
X135541159Y-74500833D01*
X135531505Y-74491179D01*
X135531505Y-74491178D01*
X135530725Y-74490398D01*
X135530714Y-74490388D01*
X132928951Y-71888625D01*
X132866853Y-71797972D01*
X132841695Y-71691009D01*
X132856876Y-71582180D01*
X132910345Y-71486185D01*
X132994881Y-71415987D01*
X133099067Y-71381067D01*
X133140376Y-71378200D01*
X136375500Y-71378200D01*
X136483511Y-71398391D01*
X136576935Y-71456236D01*
X136643154Y-71543924D01*
X136673225Y-71649612D01*
X136674500Y-71677200D01*
X136674500Y-72914516D01*
X136654309Y-73022527D01*
X136596464Y-73115951D01*
X136541616Y-73163125D01*
X136394093Y-73261696D01*
X136261697Y-73394092D01*
X136157677Y-73549770D01*
X136086027Y-73722749D01*
X136049500Y-73906381D01*
X136049500Y-74093618D01*
X136079970Y-74246803D01*
X136086027Y-74277251D01*
X136112614Y-74341438D01*
X136160136Y-74477633D01*
X136214408Y-74535134D01*
X136261698Y-74605908D01*
X136394092Y-74738302D01*
X136549769Y-74842322D01*
X136722749Y-74913973D01*
X136906384Y-74950500D01*
X137093616Y-74950500D01*
X137277251Y-74913973D01*
X137450231Y-74842322D01*
X137605908Y-74738302D01*
X137738302Y-74605908D01*
X137842322Y-74450231D01*
X137913973Y-74277251D01*
X137950500Y-74093616D01*
X137950500Y-73906384D01*
X137913973Y-73722749D01*
X137842322Y-73549769D01*
X137738302Y-73394092D01*
X137605908Y-73261698D01*
X137605906Y-73261696D01*
X137458384Y-73163125D01*
X137379794Y-73086329D01*
X137334252Y-72986329D01*
X137325500Y-72914516D01*
X137325500Y-66478676D01*
X137345691Y-66370665D01*
X137403536Y-66277241D01*
X137413054Y-66267272D01*
X142356625Y-61323700D01*
X142447275Y-61261605D01*
X142554238Y-61236447D01*
X142663067Y-61251628D01*
X142759062Y-61305097D01*
X142829260Y-61389633D01*
X142864180Y-61493819D01*
X142863366Y-61581900D01*
X142849500Y-61669444D01*
X142849500Y-61850549D01*
X142877828Y-62029404D01*
X142877829Y-62029409D01*
X142933789Y-62201639D01*
X143016004Y-62362994D01*
X143122447Y-62509501D01*
X143250499Y-62637553D01*
X143397006Y-62743996D01*
X143397011Y-62743998D01*
X143397013Y-62744000D01*
X143401941Y-62747020D01*
X143405113Y-62749885D01*
X143406510Y-62750900D01*
X143406401Y-62751048D01*
X143483486Y-62820671D01*
X143532919Y-62918806D01*
X143543563Y-63028172D01*
X143513981Y-63133997D01*
X143448168Y-63221990D01*
X143389106Y-63263052D01*
X143388862Y-63264598D01*
X143905945Y-63781681D01*
X143797358Y-63810778D01*
X143677643Y-63879896D01*
X143579896Y-63977643D01*
X143510778Y-64097358D01*
X143481681Y-64205945D01*
X142964598Y-63688862D01*
X142964597Y-63688862D01*
X142887915Y-63839359D01*
X142829548Y-64018996D01*
X142800000Y-64205556D01*
X142800000Y-64394443D01*
X142829548Y-64581003D01*
X142887912Y-64760632D01*
X142887915Y-64760638D01*
X142964597Y-64911135D01*
X143481681Y-64394052D01*
X143510778Y-64502642D01*
X143579896Y-64622357D01*
X143677643Y-64720104D01*
X143797358Y-64789222D01*
X143905945Y-64818318D01*
X143388861Y-65335401D01*
X143389209Y-65337595D01*
X143468530Y-65398654D01*
X143525510Y-65492608D01*
X143544702Y-65600801D01*
X143523515Y-65708621D01*
X143464809Y-65801506D01*
X143401959Y-65852968D01*
X143397017Y-65855996D01*
X143250497Y-65962448D01*
X143122448Y-66090497D01*
X143096078Y-66126793D01*
X143016004Y-66237006D01*
X142981563Y-66304600D01*
X142933788Y-66398362D01*
X142877828Y-66570595D01*
X142849500Y-66749450D01*
X142849500Y-66930549D01*
X142874877Y-67090771D01*
X142877829Y-67109409D01*
X142933789Y-67281639D01*
X143016004Y-67442994D01*
X143122447Y-67589501D01*
X143250499Y-67717553D01*
X143397006Y-67823996D01*
X143430702Y-67841165D01*
X143435461Y-67843590D01*
X143522533Y-67910617D01*
X143579512Y-68004572D01*
X143598703Y-68112765D01*
X143577514Y-68220585D01*
X143518807Y-68313470D01*
X143435461Y-68376410D01*
X143397009Y-68396002D01*
X143397006Y-68396003D01*
X143397006Y-68396004D01*
X143358642Y-68423877D01*
X143250497Y-68502448D01*
X143122448Y-68630497D01*
X143122447Y-68630499D01*
X143016004Y-68777006D01*
X142994169Y-68819859D01*
X142933788Y-68938362D01*
X142916160Y-68992617D01*
X142878426Y-69108756D01*
X142877828Y-69110595D01*
X142849500Y-69289450D01*
X142849500Y-69470549D01*
X142877828Y-69649404D01*
X142877829Y-69649409D01*
X142905952Y-69735965D01*
X142930744Y-69812269D01*
X142933789Y-69821639D01*
X143016004Y-69982994D01*
X143122447Y-70129501D01*
X143250499Y-70257553D01*
X143397006Y-70363996D01*
X143397011Y-70363998D01*
X143397013Y-70364000D01*
X143401941Y-70367020D01*
X143405113Y-70369885D01*
X143406510Y-70370900D01*
X143406401Y-70371048D01*
X143483486Y-70440671D01*
X143532919Y-70538806D01*
X143543563Y-70648172D01*
X143513981Y-70753997D01*
X143448168Y-70841990D01*
X143389106Y-70883052D01*
X143388862Y-70884598D01*
X143905945Y-71401681D01*
X143797358Y-71430778D01*
X143677643Y-71499896D01*
X143579896Y-71597643D01*
X143510778Y-71717358D01*
X143481681Y-71825945D01*
X142964598Y-71308862D01*
X142964597Y-71308862D01*
X142887915Y-71459359D01*
X142829548Y-71638996D01*
X142800000Y-71825556D01*
X142800000Y-72014443D01*
X142829548Y-72201003D01*
X142887912Y-72380632D01*
X142887915Y-72380638D01*
X142964597Y-72531135D01*
X143481681Y-72014052D01*
X143510778Y-72122642D01*
X143579896Y-72242357D01*
X143677643Y-72340104D01*
X143797358Y-72409222D01*
X143905945Y-72438318D01*
X143388861Y-72955401D01*
X143389209Y-72957595D01*
X143468530Y-73018654D01*
X143525510Y-73112608D01*
X143544702Y-73220801D01*
X143523515Y-73328621D01*
X143464809Y-73421506D01*
X143401959Y-73472968D01*
X143397017Y-73475996D01*
X143250497Y-73582448D01*
X143122448Y-73710497D01*
X143122447Y-73710499D01*
X143016004Y-73857006D01*
X142989282Y-73909450D01*
X142933788Y-74018362D01*
X142909337Y-74093618D01*
X142880615Y-74182018D01*
X142877828Y-74190595D01*
X142849500Y-74369450D01*
X142849500Y-74550549D01*
X142877828Y-74729404D01*
X142877829Y-74729409D01*
X142909050Y-74825500D01*
X142932997Y-74899204D01*
X142933789Y-74901639D01*
X143016004Y-75062994D01*
X143122447Y-75209501D01*
X143122448Y-75209502D01*
X143252021Y-75339075D01*
X143314119Y-75429728D01*
X143339277Y-75536691D01*
X143324096Y-75645520D01*
X143270627Y-75741515D01*
X143186091Y-75811713D01*
X143081905Y-75846633D01*
X143040596Y-75849500D01*
X143030252Y-75849500D01*
X143001010Y-75855316D01*
X142971767Y-75861133D01*
X142905448Y-75905448D01*
X142861133Y-75971767D01*
X142861133Y-75971769D01*
X142849500Y-76030252D01*
X142849500Y-77969748D01*
X142850188Y-77973205D01*
X142861133Y-78028232D01*
X142872789Y-78045675D01*
X142905448Y-78094552D01*
X142955073Y-78127711D01*
X142971767Y-78138866D01*
X142971769Y-78138867D01*
X143030252Y-78150500D01*
X143030257Y-78150500D01*
X144969743Y-78150500D01*
X144969748Y-78150500D01*
X145028231Y-78138867D01*
X145094552Y-78094552D01*
X145138867Y-78028231D01*
X145150500Y-77969748D01*
X145150500Y-76030252D01*
X145138867Y-75971769D01*
X145094552Y-75905448D01*
X145061391Y-75883290D01*
X145028232Y-75861133D01*
X145013610Y-75858224D01*
X144969748Y-75849500D01*
X144959404Y-75849500D01*
X144851393Y-75829309D01*
X144757969Y-75771464D01*
X144691750Y-75683776D01*
X144661679Y-75578088D01*
X144671818Y-75468675D01*
X144720797Y-75370312D01*
X144747979Y-75339075D01*
X144789408Y-75297646D01*
X144877553Y-75209501D01*
X144983996Y-75062994D01*
X145066211Y-74901639D01*
X145122171Y-74729409D01*
X145150500Y-74550546D01*
X145150500Y-74369454D01*
X145122171Y-74190591D01*
X145066211Y-74018361D01*
X144983996Y-73857006D01*
X144877553Y-73710499D01*
X144749501Y-73582447D01*
X144602994Y-73476004D01*
X144602988Y-73476001D01*
X144602987Y-73476000D01*
X144598054Y-73472977D01*
X144594878Y-73470108D01*
X144593490Y-73469100D01*
X144593597Y-73468951D01*
X144516509Y-73399325D01*
X144467078Y-73301190D01*
X144456434Y-73191824D01*
X144486017Y-73085999D01*
X144551831Y-72998007D01*
X144610892Y-72956944D01*
X144611137Y-72955401D01*
X144094054Y-72438318D01*
X144202642Y-72409222D01*
X144322357Y-72340104D01*
X144420104Y-72242357D01*
X144489222Y-72122642D01*
X144518318Y-72014054D01*
X145035401Y-72531137D01*
X145035401Y-72531136D01*
X145112084Y-72380640D01*
X145112086Y-72380635D01*
X145170451Y-72201003D01*
X145199999Y-72014443D01*
X145200000Y-72014441D01*
X145200000Y-71825558D01*
X145199999Y-71825556D01*
X145170451Y-71638996D01*
X145112087Y-71459367D01*
X145112084Y-71459361D01*
X145035401Y-71308862D01*
X144518318Y-71825944D01*
X144489222Y-71717358D01*
X144420104Y-71597643D01*
X144322357Y-71499896D01*
X144202642Y-71430778D01*
X144094052Y-71401681D01*
X144611136Y-70884597D01*
X144610788Y-70882403D01*
X144531469Y-70821345D01*
X144474489Y-70727390D01*
X144455297Y-70619197D01*
X144476485Y-70511377D01*
X144535191Y-70418492D01*
X144598060Y-70367019D01*
X144602986Y-70364000D01*
X144602994Y-70363996D01*
X144749501Y-70257553D01*
X144877553Y-70129501D01*
X144983996Y-69982994D01*
X145066211Y-69821639D01*
X145122171Y-69649409D01*
X145150500Y-69470546D01*
X145150500Y-69289454D01*
X145122171Y-69110591D01*
X145066211Y-68938361D01*
X144983996Y-68777006D01*
X144877553Y-68630499D01*
X144749501Y-68502447D01*
X144602994Y-68396004D01*
X144564538Y-68376409D01*
X144477468Y-68309385D01*
X144420488Y-68215431D01*
X144401296Y-68107237D01*
X144422484Y-67999417D01*
X144481190Y-67906532D01*
X144564538Y-67843590D01*
X144602994Y-67823996D01*
X144749501Y-67717553D01*
X144877553Y-67589501D01*
X144983996Y-67442994D01*
X145066211Y-67281639D01*
X145122171Y-67109409D01*
X145150500Y-66930546D01*
X145150500Y-66749454D01*
X145122171Y-66570591D01*
X145066211Y-66398361D01*
X144983996Y-66237006D01*
X144877553Y-66090499D01*
X144749501Y-65962447D01*
X144602994Y-65856004D01*
X144602988Y-65856001D01*
X144602987Y-65856000D01*
X144598054Y-65852977D01*
X144594878Y-65850108D01*
X144593490Y-65849100D01*
X144593597Y-65848951D01*
X144516509Y-65779325D01*
X144467078Y-65681190D01*
X144456434Y-65571824D01*
X144486017Y-65465999D01*
X144551831Y-65378007D01*
X144610892Y-65336944D01*
X144611137Y-65335401D01*
X144094054Y-64818318D01*
X144202642Y-64789222D01*
X144322357Y-64720104D01*
X144420104Y-64622357D01*
X144489222Y-64502642D01*
X144518318Y-64394054D01*
X145035401Y-64911137D01*
X145035401Y-64911136D01*
X145112084Y-64760640D01*
X145112086Y-64760635D01*
X145170451Y-64581003D01*
X145199999Y-64394443D01*
X145200000Y-64394441D01*
X145200000Y-64205558D01*
X145199999Y-64205556D01*
X145170451Y-64018996D01*
X145112087Y-63839367D01*
X145112084Y-63839361D01*
X145035401Y-63688862D01*
X144518318Y-64205944D01*
X144489222Y-64097358D01*
X144420104Y-63977643D01*
X144322357Y-63879896D01*
X144202642Y-63810778D01*
X144094052Y-63781681D01*
X144611136Y-63264597D01*
X144610788Y-63262403D01*
X144531469Y-63201345D01*
X144474489Y-63107390D01*
X144455297Y-62999197D01*
X144476485Y-62891377D01*
X144535191Y-62798492D01*
X144598060Y-62747019D01*
X144602986Y-62744000D01*
X144602994Y-62743996D01*
X144749501Y-62637553D01*
X144877553Y-62509501D01*
X144983996Y-62362994D01*
X145066211Y-62201639D01*
X145122171Y-62029409D01*
X145150500Y-61850546D01*
X145150500Y-61669454D01*
X145122171Y-61490591D01*
X145066211Y-61318361D01*
X144983996Y-61157006D01*
X144877553Y-61010499D01*
X144749501Y-60882447D01*
X144602994Y-60776004D01*
X144564538Y-60756409D01*
X144477468Y-60689385D01*
X144420488Y-60595431D01*
X144401296Y-60487237D01*
X144422484Y-60379417D01*
X144481190Y-60286532D01*
X144564538Y-60223590D01*
X144602994Y-60203996D01*
X144749501Y-60097553D01*
X144877553Y-59969501D01*
X144983996Y-59822994D01*
X145066211Y-59661639D01*
X145122171Y-59489409D01*
X145150500Y-59310546D01*
X145150500Y-59129454D01*
X145122171Y-58950591D01*
X145066211Y-58778361D01*
X144983996Y-58617006D01*
X144877553Y-58470499D01*
X144749501Y-58342447D01*
X144602994Y-58236004D01*
X144441639Y-58153789D01*
X144441638Y-58153788D01*
X144441637Y-58153788D01*
X144379763Y-58133684D01*
X144269409Y-58097829D01*
X144269405Y-58097828D01*
X144269404Y-58097828D01*
X144090549Y-58069500D01*
X144090546Y-58069500D01*
X143909454Y-58069500D01*
X143909450Y-58069500D01*
X143730595Y-58097828D01*
X143730592Y-58097828D01*
X143730591Y-58097829D01*
X143677646Y-58115031D01*
X143558362Y-58153788D01*
X143504370Y-58181299D01*
X143397006Y-58236004D01*
X143306769Y-58301564D01*
X143250497Y-58342448D01*
X143122448Y-58470497D01*
X143122447Y-58470499D01*
X143016004Y-58617006D01*
X142974112Y-58699222D01*
X142933788Y-58778362D01*
X142910075Y-58851347D01*
X142883100Y-58934370D01*
X142877828Y-58950595D01*
X142849500Y-59129450D01*
X142849500Y-59310549D01*
X142877828Y-59489407D01*
X142917448Y-59611347D01*
X142931621Y-59720312D01*
X142905475Y-59827038D01*
X142844506Y-59915165D01*
X136739537Y-66020135D01*
X136739531Y-66020143D01*
X136696682Y-66094358D01*
X136696681Y-66094361D01*
X136689049Y-66122848D01*
X136689048Y-66122852D01*
X136674500Y-66177146D01*
X136674500Y-70428200D01*
X136654309Y-70536211D01*
X136596464Y-70629635D01*
X136508776Y-70695854D01*
X136403088Y-70725925D01*
X136375500Y-70727200D01*
X136174000Y-70727200D01*
X136065989Y-70707009D01*
X135972565Y-70649164D01*
X135906346Y-70561476D01*
X135876275Y-70455788D01*
X135875000Y-70428200D01*
X135875000Y-70300000D01*
X135336500Y-70300000D01*
X135228489Y-70279809D01*
X135135065Y-70221964D01*
X135124369Y-70211717D01*
X134838916Y-69924348D01*
X134835065Y-69921964D01*
X134830363Y-69915738D01*
X134826369Y-69911717D01*
X134817689Y-69898955D01*
X134768846Y-69834276D01*
X134765354Y-69822004D01*
X134764574Y-69820857D01*
X134762584Y-69812269D01*
X134738775Y-69728588D01*
X134737500Y-69701000D01*
X134737500Y-69577735D01*
X135337500Y-69577735D01*
X135458950Y-69700000D01*
X135875000Y-69700000D01*
X135875000Y-69477177D01*
X135874999Y-69477171D01*
X135868596Y-69417620D01*
X135868596Y-69417617D01*
X135818352Y-69282909D01*
X135732191Y-69167813D01*
X135732186Y-69167808D01*
X135617090Y-69081647D01*
X135482381Y-69031403D01*
X135422828Y-69025000D01*
X135337500Y-69025000D01*
X135337500Y-69577735D01*
X134737500Y-69577735D01*
X134737500Y-69025000D01*
X134652171Y-69025000D01*
X134592620Y-69031403D01*
X134592617Y-69031403D01*
X134457909Y-69081647D01*
X134342813Y-69167808D01*
X134342808Y-69167813D01*
X134256647Y-69282908D01*
X134254092Y-69289761D01*
X134197428Y-69383906D01*
X134110581Y-69451225D01*
X134005281Y-69482624D01*
X133895748Y-69473865D01*
X133796777Y-69426129D01*
X133721732Y-69345864D01*
X133709594Y-69324986D01*
X133702792Y-69312117D01*
X133693788Y-69299916D01*
X133622150Y-69202850D01*
X133622149Y-69202849D01*
X133622147Y-69202847D01*
X133584446Y-69175022D01*
X133509531Y-69094637D01*
X133468713Y-68992617D01*
X133463000Y-68934449D01*
X133463000Y-67565550D01*
X133483191Y-67457539D01*
X133541036Y-67364115D01*
X133584449Y-67324975D01*
X133622147Y-67297152D01*
X133622146Y-67297152D01*
X133622150Y-67297150D01*
X133702793Y-67187882D01*
X133702793Y-67187879D01*
X133709592Y-67175017D01*
X133777913Y-67088956D01*
X133872709Y-67033388D01*
X133981177Y-67015815D01*
X134088668Y-67038613D01*
X134180665Y-67098702D01*
X134244743Y-67187966D01*
X134254093Y-67210241D01*
X134256648Y-67217091D01*
X134342808Y-67332186D01*
X134342813Y-67332191D01*
X134457909Y-67418352D01*
X134592618Y-67468596D01*
X134652171Y-67474999D01*
X134652177Y-67475000D01*
X134737500Y-67475000D01*
X135337500Y-67475000D01*
X135422823Y-67475000D01*
X135422828Y-67474999D01*
X135482379Y-67468596D01*
X135482382Y-67468596D01*
X135617090Y-67418352D01*
X135732186Y-67332191D01*
X135732191Y-67332186D01*
X135818352Y-67217090D01*
X135868596Y-67082382D01*
X135868596Y-67082379D01*
X135874999Y-67022828D01*
X135875000Y-67022822D01*
X135875000Y-66800000D01*
X135337500Y-66800000D01*
X135337500Y-67475000D01*
X134737500Y-67475000D01*
X134737500Y-66200000D01*
X135337500Y-66200000D01*
X135875000Y-66200000D01*
X135875000Y-65977177D01*
X135874999Y-65977171D01*
X135868596Y-65917620D01*
X135868596Y-65917617D01*
X135818352Y-65782909D01*
X135732191Y-65667813D01*
X135732186Y-65667808D01*
X135617090Y-65581647D01*
X135482381Y-65531403D01*
X135422828Y-65525000D01*
X135337500Y-65525000D01*
X135337500Y-66200000D01*
X134737500Y-66200000D01*
X134737500Y-65525000D01*
X134652171Y-65525000D01*
X134592620Y-65531403D01*
X134592617Y-65531403D01*
X134457909Y-65581647D01*
X134342813Y-65667808D01*
X134342808Y-65667813D01*
X134256647Y-65782908D01*
X134254092Y-65789761D01*
X134197428Y-65883906D01*
X134110581Y-65951225D01*
X134005281Y-65982624D01*
X133895748Y-65973865D01*
X133796777Y-65926129D01*
X133721732Y-65845864D01*
X133709594Y-65824986D01*
X133702792Y-65812117D01*
X133687993Y-65792064D01*
X133622150Y-65702850D01*
X133622149Y-65702849D01*
X133622147Y-65702847D01*
X133584446Y-65675022D01*
X133509531Y-65594637D01*
X133468713Y-65492617D01*
X133463000Y-65434449D01*
X133463000Y-64065550D01*
X133483191Y-63957539D01*
X133541036Y-63864115D01*
X133584449Y-63824975D01*
X133622147Y-63797152D01*
X133622146Y-63797152D01*
X133622150Y-63797150D01*
X133702793Y-63687882D01*
X133702793Y-63687879D01*
X133709592Y-63675017D01*
X133777913Y-63588956D01*
X133872709Y-63533388D01*
X133981177Y-63515815D01*
X134088668Y-63538613D01*
X134180665Y-63598702D01*
X134244743Y-63687966D01*
X134254093Y-63710241D01*
X134256648Y-63717091D01*
X134342808Y-63832186D01*
X134342813Y-63832191D01*
X134457909Y-63918352D01*
X134592618Y-63968596D01*
X134652171Y-63974999D01*
X134652177Y-63975000D01*
X134737500Y-63975000D01*
X135337500Y-63975000D01*
X135422823Y-63975000D01*
X135422828Y-63974999D01*
X135482379Y-63968596D01*
X135482382Y-63968596D01*
X135617090Y-63918352D01*
X135732186Y-63832191D01*
X135732191Y-63832186D01*
X135818352Y-63717090D01*
X135868596Y-63582382D01*
X135868596Y-63582379D01*
X135874999Y-63522828D01*
X135875000Y-63522822D01*
X135875000Y-63300000D01*
X135337500Y-63300000D01*
X135337500Y-63975000D01*
X134737500Y-63975000D01*
X134737500Y-62700000D01*
X135337500Y-62700000D01*
X135875000Y-62700000D01*
X135875000Y-62477177D01*
X135874999Y-62477171D01*
X135868596Y-62417620D01*
X135868596Y-62417617D01*
X135818352Y-62282909D01*
X135732191Y-62167813D01*
X135732186Y-62167808D01*
X135617090Y-62081647D01*
X135482381Y-62031403D01*
X135422828Y-62025000D01*
X135337500Y-62025000D01*
X135337500Y-62700000D01*
X134737500Y-62700000D01*
X134737500Y-62006434D01*
X134715777Y-61974722D01*
X134690619Y-61867759D01*
X134690300Y-61853950D01*
X134690300Y-56845945D01*
X134710491Y-56737934D01*
X134748715Y-56668407D01*
X134752793Y-56662882D01*
X134752793Y-56662879D01*
X134759416Y-56653906D01*
X134839798Y-56578986D01*
X134941815Y-56538163D01*
X135051691Y-56536949D01*
X135154585Y-56575509D01*
X135236601Y-56648635D01*
X135240574Y-56653895D01*
X135327849Y-56772149D01*
X135437119Y-56852794D01*
X135565295Y-56897644D01*
X135565301Y-56897646D01*
X135595734Y-56900500D01*
X135595736Y-56900500D01*
X136316323Y-56900500D01*
X136424334Y-56920691D01*
X136517758Y-56978536D01*
X136527748Y-56988075D01*
X137139138Y-57599465D01*
X137139142Y-57599467D01*
X137139143Y-57599468D01*
X137213355Y-57642315D01*
X137213357Y-57642315D01*
X137213361Y-57642318D01*
X137213366Y-57642319D01*
X137213368Y-57642320D01*
X137245489Y-57650926D01*
X137296147Y-57664500D01*
X137381853Y-57664500D01*
X137614837Y-57664500D01*
X137722848Y-57684691D01*
X137796198Y-57730107D01*
X137798143Y-57727573D01*
X137813687Y-57739501D01*
X137927810Y-57805390D01*
X137927811Y-57805390D01*
X137927814Y-57805392D01*
X138055108Y-57839500D01*
X138186892Y-57839500D01*
X138314186Y-57805392D01*
X138428314Y-57739500D01*
X138521500Y-57646314D01*
X138587392Y-57532186D01*
X138621500Y-57404892D01*
X138621500Y-57273108D01*
X138587392Y-57145814D01*
X138568220Y-57112608D01*
X138521502Y-57031689D01*
X138521501Y-57031688D01*
X138521500Y-57031686D01*
X138428314Y-56938500D01*
X138428311Y-56938498D01*
X138428310Y-56938497D01*
X138314189Y-56872609D01*
X138314180Y-56872606D01*
X138186892Y-56838500D01*
X138055108Y-56838500D01*
X137927819Y-56872606D01*
X137927810Y-56872609D01*
X137813687Y-56938498D01*
X137798143Y-56950427D01*
X137795507Y-56946992D01*
X137735609Y-56988023D01*
X137628646Y-57013181D01*
X137614837Y-57013500D01*
X137597677Y-57013500D01*
X137489666Y-56993309D01*
X137396242Y-56935464D01*
X137386252Y-56925925D01*
X136888075Y-56427748D01*
X136825977Y-56337095D01*
X136800819Y-56230132D01*
X136800500Y-56216323D01*
X136800500Y-55596800D01*
X136820691Y-55488789D01*
X136878536Y-55395365D01*
X136966224Y-55329146D01*
X137071912Y-55299075D01*
X137099500Y-55297800D01*
X138750500Y-55297800D01*
X138858511Y-55317991D01*
X138951935Y-55375836D01*
X139018154Y-55463524D01*
X139048225Y-55569212D01*
X139049222Y-55590800D01*
X139049500Y-55593618D01*
X139072633Y-55709912D01*
X139086027Y-55777251D01*
X139157678Y-55950231D01*
X139261698Y-56105908D01*
X139394092Y-56238302D01*
X139549769Y-56342322D01*
X139722749Y-56413973D01*
X139906384Y-56450500D01*
X140108305Y-56450500D01*
X140108305Y-56452710D01*
X140198032Y-56460495D01*
X140296680Y-56508897D01*
X140329317Y-56537130D01*
X141642953Y-57850766D01*
X141642958Y-57850772D01*
X141653400Y-57861214D01*
X141746586Y-57954400D01*
X141857369Y-58018361D01*
X141860714Y-58020292D01*
X141860716Y-58020292D01*
X141860717Y-58020293D01*
X141883849Y-58026491D01*
X141988007Y-58054400D01*
X142388592Y-58054400D01*
X142515886Y-58020292D01*
X142630014Y-57954400D01*
X142723200Y-57861214D01*
X142789092Y-57747086D01*
X142823200Y-57619792D01*
X142823200Y-57488008D01*
X142789092Y-57360714D01*
X142785966Y-57355300D01*
X142723202Y-57246589D01*
X142723201Y-57246588D01*
X142723200Y-57246586D01*
X142630014Y-57153400D01*
X142630011Y-57153398D01*
X142630010Y-57153397D01*
X142515889Y-57087509D01*
X142515880Y-57087506D01*
X142388592Y-57053400D01*
X142385063Y-57053400D01*
X142376658Y-57051828D01*
X142369162Y-57050842D01*
X142369215Y-57050437D01*
X142277052Y-57033209D01*
X142183628Y-56975364D01*
X142173638Y-56965825D01*
X141630145Y-56422332D01*
X141610673Y-56393906D01*
X141589369Y-56380941D01*
X141577671Y-56369858D01*
X141037130Y-55829317D01*
X140975032Y-55738664D01*
X140949874Y-55631701D01*
X140950500Y-55607653D01*
X140950500Y-55455219D01*
X140970691Y-55347208D01*
X141028536Y-55253784D01*
X141116224Y-55187565D01*
X141221912Y-55157494D01*
X141331325Y-55167633D01*
X141429688Y-55216612D01*
X141486712Y-55273199D01*
X141520327Y-55317007D01*
X142025126Y-55974873D01*
X142750000Y-56531088D01*
X143594133Y-56880740D01*
X144380739Y-56984298D01*
X144499999Y-57000000D01*
X144500000Y-57000000D01*
X145405866Y-56880740D01*
X146250000Y-56531088D01*
X146260549Y-56522994D01*
X146445675Y-56380941D01*
X146974873Y-55974873D01*
X147163292Y-55729319D01*
X147245059Y-55655926D01*
X147347823Y-55617022D01*
X147457702Y-55617868D01*
X147559856Y-55658350D01*
X147640487Y-55733000D01*
X147688707Y-55831736D01*
X147699500Y-55911345D01*
X147699500Y-82088652D01*
X147679309Y-82196663D01*
X147621464Y-82290087D01*
X147533776Y-82356306D01*
X147428088Y-82386377D01*
X147318675Y-82376238D01*
X147220312Y-82327259D01*
X147163287Y-82270672D01*
X146974873Y-82025126D01*
X146974872Y-82025125D01*
X146250007Y-81468915D01*
X146250001Y-81468912D01*
X146250000Y-81468911D01*
X145405866Y-81119259D01*
X144500000Y-81000000D01*
X143594132Y-81119259D01*
X142750000Y-81468911D01*
X142749998Y-81468912D01*
X142025126Y-82025126D01*
X141468912Y-82749998D01*
X141468911Y-82750000D01*
X141119259Y-83594132D01*
X141000000Y-84499998D01*
X141000000Y-84500001D01*
X141119259Y-85405866D01*
X141119259Y-85405867D01*
X141468911Y-86249999D01*
X141468915Y-86250007D01*
X142025125Y-86974872D01*
X142025129Y-86974876D01*
X142270672Y-87163287D01*
X142344072Y-87245059D01*
X142382976Y-87347823D01*
X142382130Y-87457702D01*
X142341649Y-87559856D01*
X142266998Y-87640487D01*
X142168262Y-87688707D01*
X142088653Y-87699500D01*
X105911346Y-87699500D01*
X105803335Y-87679309D01*
X105709911Y-87621464D01*
X105643692Y-87533776D01*
X105613621Y-87428088D01*
X105623760Y-87318675D01*
X105672739Y-87220312D01*
X105729326Y-87163288D01*
X105734842Y-87159055D01*
X105974873Y-86974873D01*
X106531088Y-86250000D01*
X106880740Y-85405866D01*
X106957383Y-84823707D01*
X107559764Y-84823707D01*
X107564506Y-84847546D01*
X107619759Y-84930238D01*
X107619761Y-84930240D01*
X107702453Y-84985493D01*
X107702452Y-84985493D01*
X107775380Y-85000000D01*
X108100000Y-85000000D01*
X108700000Y-85000000D01*
X109024619Y-85000000D01*
X109097546Y-84985493D01*
X109180238Y-84930240D01*
X109180240Y-84930238D01*
X109235493Y-84847546D01*
X109250000Y-84774620D01*
X113750000Y-84774620D01*
X113764506Y-84847546D01*
X113819759Y-84930238D01*
X113819761Y-84930240D01*
X113902453Y-84985493D01*
X113902452Y-84985493D01*
X113975380Y-85000000D01*
X114300000Y-85000000D01*
X114900000Y-85000000D01*
X115224619Y-85000000D01*
X115235538Y-84997828D01*
X116150000Y-84997828D01*
X116156403Y-85057379D01*
X116156403Y-85057382D01*
X116206647Y-85192090D01*
X116292808Y-85307186D01*
X116292813Y-85307191D01*
X116407909Y-85393352D01*
X116542618Y-85443596D01*
X116602171Y-85449999D01*
X116602177Y-85450000D01*
X116675000Y-85450000D01*
X116675000Y-84800000D01*
X116150000Y-84800000D01*
X116150000Y-84997828D01*
X115235538Y-84997828D01*
X115297546Y-84985493D01*
X115380238Y-84930240D01*
X115380240Y-84930238D01*
X115435493Y-84847546D01*
X115450000Y-84774620D01*
X115450000Y-84650000D01*
X114900000Y-84650000D01*
X114900000Y-85000000D01*
X114300000Y-85000000D01*
X114300000Y-84650000D01*
X113750000Y-84650000D01*
X113750000Y-84774620D01*
X109250000Y-84774620D01*
X109250000Y-84650000D01*
X108700000Y-84650000D01*
X108700000Y-85000000D01*
X108100000Y-85000000D01*
X108100000Y-84650000D01*
X107579872Y-84650000D01*
X107559764Y-84823707D01*
X106957383Y-84823707D01*
X107000000Y-84500000D01*
X106963357Y-84221671D01*
X106965002Y-84191170D01*
X106957091Y-84170748D01*
X106954558Y-84154834D01*
X106940756Y-84050000D01*
X106924349Y-83925379D01*
X107550000Y-83925379D01*
X107550000Y-84050000D01*
X108100000Y-84050000D01*
X108700000Y-84050000D01*
X109250000Y-84050000D01*
X109250000Y-83925379D01*
X113750000Y-83925379D01*
X113750000Y-84050000D01*
X114300000Y-84050000D01*
X114900000Y-84050000D01*
X115450000Y-84050000D01*
X115450000Y-84002171D01*
X116150000Y-84002171D01*
X116150000Y-84200000D01*
X116675000Y-84200000D01*
X116675000Y-83550000D01*
X116602171Y-83550000D01*
X116542620Y-83556403D01*
X116542617Y-83556403D01*
X116407909Y-83606647D01*
X116292813Y-83692808D01*
X116292808Y-83692813D01*
X116206647Y-83807909D01*
X116156403Y-83942617D01*
X116156403Y-83942620D01*
X116150000Y-84002171D01*
X115450000Y-84002171D01*
X115450000Y-83925379D01*
X115435493Y-83852453D01*
X115380240Y-83769761D01*
X115380238Y-83769759D01*
X115297546Y-83714506D01*
X115297547Y-83714506D01*
X115224620Y-83700000D01*
X114900000Y-83700000D01*
X114900000Y-84050000D01*
X114300000Y-84050000D01*
X114300000Y-83700000D01*
X113975380Y-83700000D01*
X113902453Y-83714506D01*
X113819761Y-83769759D01*
X113819759Y-83769761D01*
X113764506Y-83852453D01*
X113750000Y-83925379D01*
X109250000Y-83925379D01*
X109235493Y-83852453D01*
X109180240Y-83769761D01*
X109180238Y-83769759D01*
X109097546Y-83714506D01*
X109097547Y-83714506D01*
X109024620Y-83700000D01*
X108700000Y-83700000D01*
X108700000Y-84050000D01*
X108100000Y-84050000D01*
X108100000Y-83700000D01*
X107775380Y-83700000D01*
X107702453Y-83714506D01*
X107619761Y-83769759D01*
X107619759Y-83769761D01*
X107564506Y-83852453D01*
X107550000Y-83925379D01*
X106924349Y-83925379D01*
X106880740Y-83594133D01*
X106531088Y-82750000D01*
X105974873Y-82025126D01*
X105881612Y-81953564D01*
X105250007Y-81468915D01*
X105250001Y-81468912D01*
X105250000Y-81468911D01*
X104405866Y-81119259D01*
X103500000Y-81000000D01*
X102594132Y-81119259D01*
X101750000Y-81468911D01*
X101749998Y-81468912D01*
X101270948Y-81836500D01*
X101025126Y-82025126D01*
X100836709Y-82270674D01*
X100754941Y-82344071D01*
X100652176Y-82382975D01*
X100542297Y-82382129D01*
X100440144Y-82341647D01*
X100359512Y-82266997D01*
X100311293Y-82168260D01*
X100300500Y-82088652D01*
X100300500Y-73025379D01*
X102300000Y-73025379D01*
X102300000Y-73700000D01*
X103038120Y-73700000D01*
X102987482Y-73787708D01*
X102950000Y-73927591D01*
X102950000Y-74072409D01*
X102987482Y-74212292D01*
X103038120Y-74300000D01*
X102300000Y-74300000D01*
X102300000Y-74974620D01*
X102314506Y-75047546D01*
X102369759Y-75130238D01*
X102369761Y-75130240D01*
X102452453Y-75185493D01*
X102452452Y-75185493D01*
X102525380Y-75200000D01*
X103200000Y-75200000D01*
X103200000Y-74461880D01*
X103287708Y-74512518D01*
X103427591Y-74550000D01*
X103572409Y-74550000D01*
X103712292Y-74512518D01*
X103800000Y-74461880D01*
X103800000Y-75200000D01*
X104474619Y-75200000D01*
X104547546Y-75185493D01*
X104630238Y-75130240D01*
X104630240Y-75130238D01*
X104685493Y-75047546D01*
X104702865Y-74960217D01*
X104704701Y-74960582D01*
X104730362Y-74872330D01*
X104797086Y-74785025D01*
X104890841Y-74727720D01*
X104998967Y-74708152D01*
X105106860Y-74728965D01*
X105199949Y-74787349D01*
X105208668Y-74795722D01*
X105290499Y-74877553D01*
X105437006Y-74983996D01*
X105598361Y-75066211D01*
X105770591Y-75122171D01*
X105949454Y-75150500D01*
X105949455Y-75150500D01*
X106130545Y-75150500D01*
X106130546Y-75150500D01*
X106309409Y-75122171D01*
X106481639Y-75066211D01*
X106642994Y-74983996D01*
X106789501Y-74877553D01*
X106917553Y-74749501D01*
X107023996Y-74602994D01*
X107043590Y-74564538D01*
X107110615Y-74477468D01*
X107204569Y-74420488D01*
X107312763Y-74401296D01*
X107420583Y-74422484D01*
X107513468Y-74481190D01*
X107576409Y-74564538D01*
X107596004Y-74602994D01*
X107702447Y-74749501D01*
X107830499Y-74877553D01*
X107977006Y-74983996D01*
X108138361Y-75066211D01*
X108310591Y-75122171D01*
X108489454Y-75150500D01*
X108489455Y-75150500D01*
X108670545Y-75150500D01*
X108670546Y-75150500D01*
X108849409Y-75122171D01*
X109021639Y-75066211D01*
X109182994Y-74983996D01*
X109329501Y-74877553D01*
X109457553Y-74749501D01*
X109563996Y-74602994D01*
X109646211Y-74441639D01*
X109702171Y-74269409D01*
X109730500Y-74090546D01*
X109730500Y-73909454D01*
X109702171Y-73730591D01*
X109646211Y-73558361D01*
X109563996Y-73397006D01*
X109457553Y-73250499D01*
X109329501Y-73122447D01*
X109182994Y-73016004D01*
X109021639Y-72933789D01*
X109021638Y-72933788D01*
X109021637Y-72933788D01*
X108959763Y-72913684D01*
X108849409Y-72877829D01*
X108849405Y-72877828D01*
X108849404Y-72877828D01*
X108670549Y-72849500D01*
X108670546Y-72849500D01*
X108489454Y-72849500D01*
X108489450Y-72849500D01*
X108310595Y-72877828D01*
X108310592Y-72877828D01*
X108310591Y-72877829D01*
X108260538Y-72894092D01*
X108138362Y-72933788D01*
X108101731Y-72952453D01*
X107977006Y-73016004D01*
X107930531Y-73049770D01*
X107830497Y-73122448D01*
X107702448Y-73250497D01*
X107596002Y-73397009D01*
X107576410Y-73435461D01*
X107509383Y-73522533D01*
X107415428Y-73579512D01*
X107307235Y-73598703D01*
X107199415Y-73577514D01*
X107106530Y-73518807D01*
X107043590Y-73435461D01*
X107028774Y-73406384D01*
X107023996Y-73397006D01*
X106917553Y-73250499D01*
X106789501Y-73122447D01*
X106642994Y-73016004D01*
X106481639Y-72933789D01*
X106481638Y-72933788D01*
X106481637Y-72933788D01*
X106419763Y-72913684D01*
X106309409Y-72877829D01*
X106309405Y-72877828D01*
X106309404Y-72877828D01*
X106130549Y-72849500D01*
X106130546Y-72849500D01*
X105949454Y-72849500D01*
X105949450Y-72849500D01*
X105770595Y-72877828D01*
X105770592Y-72877828D01*
X105770591Y-72877829D01*
X105720538Y-72894092D01*
X105598362Y-72933788D01*
X105561731Y-72952453D01*
X105437006Y-73016004D01*
X105390531Y-73049770D01*
X105290497Y-73122448D01*
X105208667Y-73204278D01*
X105118014Y-73266376D01*
X105011050Y-73291533D01*
X104902222Y-73276352D01*
X104806227Y-73222882D01*
X104736029Y-73138345D01*
X104702986Y-73039758D01*
X104702865Y-73039783D01*
X104702675Y-73038829D01*
X104701110Y-73034159D01*
X104700164Y-73026205D01*
X104685493Y-72952453D01*
X104630240Y-72869761D01*
X104630238Y-72869759D01*
X104547546Y-72814506D01*
X104547547Y-72814506D01*
X104474620Y-72800000D01*
X103800000Y-72800000D01*
X103800000Y-73538119D01*
X103712292Y-73487482D01*
X103572409Y-73450000D01*
X103427591Y-73450000D01*
X103287708Y-73487482D01*
X103200000Y-73538119D01*
X103200000Y-72800000D01*
X102525380Y-72800000D01*
X102452453Y-72814506D01*
X102369761Y-72869759D01*
X102369759Y-72869761D01*
X102314506Y-72952453D01*
X102300000Y-73025379D01*
X100300500Y-73025379D01*
X100300500Y-65889631D01*
X103034632Y-65889631D01*
X103208310Y-65961570D01*
X103401506Y-65999999D01*
X103401509Y-66000000D01*
X103598491Y-66000000D01*
X103598493Y-65999999D01*
X103791691Y-65961570D01*
X103965366Y-65889631D01*
X103965367Y-65889631D01*
X103500000Y-65424264D01*
X103034632Y-65889631D01*
X100300500Y-65889631D01*
X100300500Y-64901506D01*
X102500000Y-64901506D01*
X102500000Y-65098493D01*
X102538430Y-65291694D01*
X102538430Y-65291695D01*
X102610367Y-65465366D01*
X103075735Y-64999999D01*
X103924264Y-64999999D01*
X103924264Y-65000000D01*
X104389631Y-65465367D01*
X104389631Y-65465366D01*
X104461570Y-65291691D01*
X104499999Y-65098493D01*
X104500000Y-65098490D01*
X104500000Y-64901509D01*
X104499999Y-64901506D01*
X104461570Y-64708310D01*
X104389631Y-64534632D01*
X103924264Y-64999999D01*
X103075735Y-64999999D01*
X102610368Y-64534632D01*
X102610367Y-64534632D01*
X102538431Y-64708304D01*
X102538430Y-64708306D01*
X102500000Y-64901506D01*
X100300500Y-64901506D01*
X100300500Y-64110367D01*
X103034632Y-64110367D01*
X103034632Y-64110368D01*
X103499999Y-64575735D01*
X103965366Y-64110367D01*
X103791694Y-64038430D01*
X103598493Y-64000000D01*
X103401506Y-64000000D01*
X103208306Y-64038430D01*
X103208304Y-64038431D01*
X103034632Y-64110367D01*
X100300500Y-64110367D01*
X100300500Y-55911347D01*
X100320691Y-55803336D01*
X100378536Y-55709912D01*
X100466224Y-55643693D01*
X100571912Y-55613622D01*
X100681325Y-55623761D01*
X100779688Y-55672740D01*
X100836707Y-55729321D01*
X101025126Y-55974873D01*
X101750000Y-56531088D01*
X102594133Y-56880740D01*
X103380739Y-56984298D01*
X103499999Y-57000000D01*
X103500000Y-57000000D01*
X104405866Y-56880740D01*
X105250000Y-56531088D01*
X105260549Y-56522994D01*
X105445675Y-56380941D01*
X105974873Y-55974873D01*
X106479672Y-55317007D01*
X106531083Y-55250007D01*
X106531083Y-55250005D01*
X106531088Y-55250000D01*
X106880740Y-54405866D01*
X107000000Y-53500000D01*
X106880740Y-52594133D01*
X106531088Y-51750000D01*
X105974873Y-51025126D01*
X105729323Y-50836709D01*
X105655928Y-50754941D01*
X105617024Y-50652176D01*
X105617870Y-50542297D01*
X105658352Y-50440144D01*
X105733002Y-50359512D01*
X105831739Y-50311293D01*
X105911347Y-50300500D01*
X142088652Y-50300500D01*
X142196663Y-50320691D01*
G37*
%TD.AperFunction*%
%TD*%
M02*
