%TF.GenerationSoftware,KiCad,Pcbnew,10.0.6*%
%TF.CreationDate,2026-09-27T01:16:22+02:00*%
%TF.ProjectId,Vibra_V1,56696272-615f-4563-912e-6b696361645f,E-HS*%
%TF.SameCoordinates,Original*%
%TF.FileFunction,Legend,Top*%
%TF.FilePolarity,Positive*%
%FSLAX46Y46*%
G04 Gerber Fmt 4.6, Leading zero omitted, Abs format (unit mm)*
G04 Created by KiCad (PCBNEW 10.0.6) date 2026-09-27 01:16:22*
%MOMM*%
%LPD*%
G01*
G04 APERTURE LIST*
%ADD10C,0.120000*%
%ADD11C,0.150000*%
G04 APERTURE END LIST*
D10*
X102890476Y-62601950D02*
X102814286Y-62563855D01*
X102814286Y-62563855D02*
X102700000Y-62563855D01*
X102700000Y-62563855D02*
X102585714Y-62601950D01*
X102585714Y-62601950D02*
X102509524Y-62678140D01*
X102509524Y-62678140D02*
X102471429Y-62754331D01*
X102471429Y-62754331D02*
X102433333Y-62906712D01*
X102433333Y-62906712D02*
X102433333Y-63020998D01*
X102433333Y-63020998D02*
X102471429Y-63173379D01*
X102471429Y-63173379D02*
X102509524Y-63249569D01*
X102509524Y-63249569D02*
X102585714Y-63325760D01*
X102585714Y-63325760D02*
X102700000Y-63363855D01*
X102700000Y-63363855D02*
X102776191Y-63363855D01*
X102776191Y-63363855D02*
X102890476Y-63325760D01*
X102890476Y-63325760D02*
X102928572Y-63287664D01*
X102928572Y-63287664D02*
X102928572Y-63020998D01*
X102928572Y-63020998D02*
X102776191Y-63020998D01*
X103271429Y-63363855D02*
X103271429Y-62563855D01*
X103271429Y-62563855D02*
X103728572Y-63363855D01*
X103728572Y-63363855D02*
X103728572Y-62563855D01*
X104109524Y-63363855D02*
X104109524Y-62563855D01*
X104109524Y-62563855D02*
X104300000Y-62563855D01*
X104300000Y-62563855D02*
X104414286Y-62601950D01*
X104414286Y-62601950D02*
X104490476Y-62678140D01*
X104490476Y-62678140D02*
X104528571Y-62754331D01*
X104528571Y-62754331D02*
X104566667Y-62906712D01*
X104566667Y-62906712D02*
X104566667Y-63020998D01*
X104566667Y-63020998D02*
X104528571Y-63173379D01*
X104528571Y-63173379D02*
X104490476Y-63249569D01*
X104490476Y-63249569D02*
X104414286Y-63325760D01*
X104414286Y-63325760D02*
X104300000Y-63363855D01*
X104300000Y-63363855D02*
X104109524Y-63363855D01*
X103563808Y-71251950D02*
X103487618Y-71213855D01*
X103487618Y-71213855D02*
X103373332Y-71213855D01*
X103373332Y-71213855D02*
X103259046Y-71251950D01*
X103259046Y-71251950D02*
X103182856Y-71328140D01*
X103182856Y-71328140D02*
X103144761Y-71404331D01*
X103144761Y-71404331D02*
X103106665Y-71556712D01*
X103106665Y-71556712D02*
X103106665Y-71670998D01*
X103106665Y-71670998D02*
X103144761Y-71823379D01*
X103144761Y-71823379D02*
X103182856Y-71899569D01*
X103182856Y-71899569D02*
X103259046Y-71975760D01*
X103259046Y-71975760D02*
X103373332Y-72013855D01*
X103373332Y-72013855D02*
X103449523Y-72013855D01*
X103449523Y-72013855D02*
X103563808Y-71975760D01*
X103563808Y-71975760D02*
X103601904Y-71937664D01*
X103601904Y-71937664D02*
X103601904Y-71670998D01*
X103601904Y-71670998D02*
X103449523Y-71670998D01*
X105049523Y-71213855D02*
X105506666Y-71213855D01*
X105278094Y-72013855D02*
X105278094Y-71213855D01*
X105697142Y-71213855D02*
X106230476Y-72013855D01*
X106230476Y-71213855D02*
X105697142Y-72013855D01*
X108211429Y-72013855D02*
X107944762Y-71632902D01*
X107754286Y-72013855D02*
X107754286Y-71213855D01*
X107754286Y-71213855D02*
X108059048Y-71213855D01*
X108059048Y-71213855D02*
X108135238Y-71251950D01*
X108135238Y-71251950D02*
X108173333Y-71290045D01*
X108173333Y-71290045D02*
X108211429Y-71366236D01*
X108211429Y-71366236D02*
X108211429Y-71480521D01*
X108211429Y-71480521D02*
X108173333Y-71556712D01*
X108173333Y-71556712D02*
X108135238Y-71594807D01*
X108135238Y-71594807D02*
X108059048Y-71632902D01*
X108059048Y-71632902D02*
X107754286Y-71632902D01*
X108478095Y-71213855D02*
X109011429Y-72013855D01*
X109011429Y-71213855D02*
X108478095Y-72013855D01*
X110780953Y-78287664D02*
X110742857Y-78325760D01*
X110742857Y-78325760D02*
X110628572Y-78363855D01*
X110628572Y-78363855D02*
X110552381Y-78363855D01*
X110552381Y-78363855D02*
X110438095Y-78325760D01*
X110438095Y-78325760D02*
X110361905Y-78249569D01*
X110361905Y-78249569D02*
X110323810Y-78173379D01*
X110323810Y-78173379D02*
X110285714Y-78020998D01*
X110285714Y-78020998D02*
X110285714Y-77906712D01*
X110285714Y-77906712D02*
X110323810Y-77754331D01*
X110323810Y-77754331D02*
X110361905Y-77678140D01*
X110361905Y-77678140D02*
X110438095Y-77601950D01*
X110438095Y-77601950D02*
X110552381Y-77563855D01*
X110552381Y-77563855D02*
X110628572Y-77563855D01*
X110628572Y-77563855D02*
X110742857Y-77601950D01*
X110742857Y-77601950D02*
X110780953Y-77640045D01*
X111085714Y-78135283D02*
X111466667Y-78135283D01*
X111009524Y-78363855D02*
X111276191Y-77563855D01*
X111276191Y-77563855D02*
X111542857Y-78363855D01*
X112190476Y-78363855D02*
X111809524Y-78363855D01*
X111809524Y-78363855D02*
X111809524Y-77563855D01*
X111080953Y-86687664D02*
X111042857Y-86725760D01*
X111042857Y-86725760D02*
X110928572Y-86763855D01*
X110928572Y-86763855D02*
X110852381Y-86763855D01*
X110852381Y-86763855D02*
X110738095Y-86725760D01*
X110738095Y-86725760D02*
X110661905Y-86649569D01*
X110661905Y-86649569D02*
X110623810Y-86573379D01*
X110623810Y-86573379D02*
X110585714Y-86420998D01*
X110585714Y-86420998D02*
X110585714Y-86306712D01*
X110585714Y-86306712D02*
X110623810Y-86154331D01*
X110623810Y-86154331D02*
X110661905Y-86078140D01*
X110661905Y-86078140D02*
X110738095Y-86001950D01*
X110738095Y-86001950D02*
X110852381Y-85963855D01*
X110852381Y-85963855D02*
X110928572Y-85963855D01*
X110928572Y-85963855D02*
X111042857Y-86001950D01*
X111042857Y-86001950D02*
X111080953Y-86040045D01*
X111385714Y-86535283D02*
X111766667Y-86535283D01*
X111309524Y-86763855D02*
X111576191Y-85963855D01*
X111576191Y-85963855D02*
X111842857Y-86763855D01*
X112490476Y-86763855D02*
X112109524Y-86763855D01*
X112109524Y-86763855D02*
X112109524Y-85963855D01*
X111309523Y-72063855D02*
X111842857Y-72863855D01*
X111842857Y-72063855D02*
X111309523Y-72863855D01*
X112147619Y-72863855D02*
X112147619Y-72063855D01*
X112490475Y-72635283D02*
X112871428Y-72635283D01*
X112414285Y-72863855D02*
X112680952Y-72063855D01*
X112680952Y-72063855D02*
X112947618Y-72863855D01*
X113366666Y-72063855D02*
X113519047Y-72063855D01*
X113519047Y-72063855D02*
X113595237Y-72101950D01*
X113595237Y-72101950D02*
X113671428Y-72178140D01*
X113671428Y-72178140D02*
X113709523Y-72330521D01*
X113709523Y-72330521D02*
X113709523Y-72597188D01*
X113709523Y-72597188D02*
X113671428Y-72749569D01*
X113671428Y-72749569D02*
X113595237Y-72825760D01*
X113595237Y-72825760D02*
X113519047Y-72863855D01*
X113519047Y-72863855D02*
X113366666Y-72863855D01*
X113366666Y-72863855D02*
X113290475Y-72825760D01*
X113290475Y-72825760D02*
X113214285Y-72749569D01*
X113214285Y-72749569D02*
X113176189Y-72597188D01*
X113176189Y-72597188D02*
X113176189Y-72330521D01*
X113176189Y-72330521D02*
X113214285Y-72178140D01*
X113214285Y-72178140D02*
X113290475Y-72101950D01*
X113290475Y-72101950D02*
X113366666Y-72063855D01*
X114661904Y-72444807D02*
X114928570Y-72444807D01*
X115042856Y-72863855D02*
X114661904Y-72863855D01*
X114661904Y-72863855D02*
X114661904Y-72063855D01*
X114661904Y-72063855D02*
X115042856Y-72063855D01*
X115347618Y-72825760D02*
X115461904Y-72863855D01*
X115461904Y-72863855D02*
X115652380Y-72863855D01*
X115652380Y-72863855D02*
X115728571Y-72825760D01*
X115728571Y-72825760D02*
X115766666Y-72787664D01*
X115766666Y-72787664D02*
X115804761Y-72711474D01*
X115804761Y-72711474D02*
X115804761Y-72635283D01*
X115804761Y-72635283D02*
X115766666Y-72559093D01*
X115766666Y-72559093D02*
X115728571Y-72520998D01*
X115728571Y-72520998D02*
X115652380Y-72482902D01*
X115652380Y-72482902D02*
X115499999Y-72444807D01*
X115499999Y-72444807D02*
X115423809Y-72406712D01*
X115423809Y-72406712D02*
X115385714Y-72368617D01*
X115385714Y-72368617D02*
X115347618Y-72292426D01*
X115347618Y-72292426D02*
X115347618Y-72216236D01*
X115347618Y-72216236D02*
X115385714Y-72140045D01*
X115385714Y-72140045D02*
X115423809Y-72101950D01*
X115423809Y-72101950D02*
X115499999Y-72063855D01*
X115499999Y-72063855D02*
X115690476Y-72063855D01*
X115690476Y-72063855D02*
X115804761Y-72101950D01*
X116147619Y-72863855D02*
X116147619Y-72063855D01*
X116147619Y-72063855D02*
X116452381Y-72063855D01*
X116452381Y-72063855D02*
X116528571Y-72101950D01*
X116528571Y-72101950D02*
X116566666Y-72140045D01*
X116566666Y-72140045D02*
X116604762Y-72216236D01*
X116604762Y-72216236D02*
X116604762Y-72330521D01*
X116604762Y-72330521D02*
X116566666Y-72406712D01*
X116566666Y-72406712D02*
X116528571Y-72444807D01*
X116528571Y-72444807D02*
X116452381Y-72482902D01*
X116452381Y-72482902D02*
X116147619Y-72482902D01*
X116871428Y-72063855D02*
X117366666Y-72063855D01*
X117366666Y-72063855D02*
X117100000Y-72368617D01*
X117100000Y-72368617D02*
X117214285Y-72368617D01*
X117214285Y-72368617D02*
X117290476Y-72406712D01*
X117290476Y-72406712D02*
X117328571Y-72444807D01*
X117328571Y-72444807D02*
X117366666Y-72520998D01*
X117366666Y-72520998D02*
X117366666Y-72711474D01*
X117366666Y-72711474D02*
X117328571Y-72787664D01*
X117328571Y-72787664D02*
X117290476Y-72825760D01*
X117290476Y-72825760D02*
X117214285Y-72863855D01*
X117214285Y-72863855D02*
X116985714Y-72863855D01*
X116985714Y-72863855D02*
X116909523Y-72825760D01*
X116909523Y-72825760D02*
X116871428Y-72787664D01*
X117671428Y-72140045D02*
X117709524Y-72101950D01*
X117709524Y-72101950D02*
X117785714Y-72063855D01*
X117785714Y-72063855D02*
X117976190Y-72063855D01*
X117976190Y-72063855D02*
X118052381Y-72101950D01*
X118052381Y-72101950D02*
X118090476Y-72140045D01*
X118090476Y-72140045D02*
X118128571Y-72216236D01*
X118128571Y-72216236D02*
X118128571Y-72292426D01*
X118128571Y-72292426D02*
X118090476Y-72406712D01*
X118090476Y-72406712D02*
X117633333Y-72863855D01*
X117633333Y-72863855D02*
X118128571Y-72863855D01*
X118433333Y-72825760D02*
X118547619Y-72863855D01*
X118547619Y-72863855D02*
X118738095Y-72863855D01*
X118738095Y-72863855D02*
X118814286Y-72825760D01*
X118814286Y-72825760D02*
X118852381Y-72787664D01*
X118852381Y-72787664D02*
X118890476Y-72711474D01*
X118890476Y-72711474D02*
X118890476Y-72635283D01*
X118890476Y-72635283D02*
X118852381Y-72559093D01*
X118852381Y-72559093D02*
X118814286Y-72520998D01*
X118814286Y-72520998D02*
X118738095Y-72482902D01*
X118738095Y-72482902D02*
X118585714Y-72444807D01*
X118585714Y-72444807D02*
X118509524Y-72406712D01*
X118509524Y-72406712D02*
X118471429Y-72368617D01*
X118471429Y-72368617D02*
X118433333Y-72292426D01*
X118433333Y-72292426D02*
X118433333Y-72216236D01*
X118433333Y-72216236D02*
X118471429Y-72140045D01*
X118471429Y-72140045D02*
X118509524Y-72101950D01*
X118509524Y-72101950D02*
X118585714Y-72063855D01*
X118585714Y-72063855D02*
X118776191Y-72063855D01*
X118776191Y-72063855D02*
X118890476Y-72101950D01*
X119157143Y-72063855D02*
X119652381Y-72063855D01*
X119652381Y-72063855D02*
X119385715Y-72368617D01*
X119385715Y-72368617D02*
X119500000Y-72368617D01*
X119500000Y-72368617D02*
X119576191Y-72406712D01*
X119576191Y-72406712D02*
X119614286Y-72444807D01*
X119614286Y-72444807D02*
X119652381Y-72520998D01*
X119652381Y-72520998D02*
X119652381Y-72711474D01*
X119652381Y-72711474D02*
X119614286Y-72787664D01*
X119614286Y-72787664D02*
X119576191Y-72825760D01*
X119576191Y-72825760D02*
X119500000Y-72863855D01*
X119500000Y-72863855D02*
X119271429Y-72863855D01*
X119271429Y-72863855D02*
X119195238Y-72825760D01*
X119195238Y-72825760D02*
X119157143Y-72787664D01*
X120528571Y-73825760D02*
X120642857Y-73863855D01*
X120642857Y-73863855D02*
X120833333Y-73863855D01*
X120833333Y-73863855D02*
X120909524Y-73825760D01*
X120909524Y-73825760D02*
X120947619Y-73787664D01*
X120947619Y-73787664D02*
X120985714Y-73711474D01*
X120985714Y-73711474D02*
X120985714Y-73635283D01*
X120985714Y-73635283D02*
X120947619Y-73559093D01*
X120947619Y-73559093D02*
X120909524Y-73520998D01*
X120909524Y-73520998D02*
X120833333Y-73482902D01*
X120833333Y-73482902D02*
X120680952Y-73444807D01*
X120680952Y-73444807D02*
X120604762Y-73406712D01*
X120604762Y-73406712D02*
X120566667Y-73368617D01*
X120566667Y-73368617D02*
X120528571Y-73292426D01*
X120528571Y-73292426D02*
X120528571Y-73216236D01*
X120528571Y-73216236D02*
X120566667Y-73140045D01*
X120566667Y-73140045D02*
X120604762Y-73101950D01*
X120604762Y-73101950D02*
X120680952Y-73063855D01*
X120680952Y-73063855D02*
X120871429Y-73063855D01*
X120871429Y-73063855D02*
X120985714Y-73101950D01*
X121328572Y-73863855D02*
X121328572Y-73063855D01*
X121328572Y-73063855D02*
X121519048Y-73063855D01*
X121519048Y-73063855D02*
X121633334Y-73101950D01*
X121633334Y-73101950D02*
X121709524Y-73178140D01*
X121709524Y-73178140D02*
X121747619Y-73254331D01*
X121747619Y-73254331D02*
X121785715Y-73406712D01*
X121785715Y-73406712D02*
X121785715Y-73520998D01*
X121785715Y-73520998D02*
X121747619Y-73673379D01*
X121747619Y-73673379D02*
X121709524Y-73749569D01*
X121709524Y-73749569D02*
X121633334Y-73825760D01*
X121633334Y-73825760D02*
X121519048Y-73863855D01*
X121519048Y-73863855D02*
X121328572Y-73863855D01*
X122090476Y-73635283D02*
X122471429Y-73635283D01*
X122014286Y-73863855D02*
X122280953Y-73063855D01*
X122280953Y-73063855D02*
X122547619Y-73863855D01*
X120547618Y-77325760D02*
X120661904Y-77363855D01*
X120661904Y-77363855D02*
X120852380Y-77363855D01*
X120852380Y-77363855D02*
X120928571Y-77325760D01*
X120928571Y-77325760D02*
X120966666Y-77287664D01*
X120966666Y-77287664D02*
X121004761Y-77211474D01*
X121004761Y-77211474D02*
X121004761Y-77135283D01*
X121004761Y-77135283D02*
X120966666Y-77059093D01*
X120966666Y-77059093D02*
X120928571Y-77020998D01*
X120928571Y-77020998D02*
X120852380Y-76982902D01*
X120852380Y-76982902D02*
X120699999Y-76944807D01*
X120699999Y-76944807D02*
X120623809Y-76906712D01*
X120623809Y-76906712D02*
X120585714Y-76868617D01*
X120585714Y-76868617D02*
X120547618Y-76792426D01*
X120547618Y-76792426D02*
X120547618Y-76716236D01*
X120547618Y-76716236D02*
X120585714Y-76640045D01*
X120585714Y-76640045D02*
X120623809Y-76601950D01*
X120623809Y-76601950D02*
X120699999Y-76563855D01*
X120699999Y-76563855D02*
X120890476Y-76563855D01*
X120890476Y-76563855D02*
X121004761Y-76601950D01*
X121804762Y-77287664D02*
X121766666Y-77325760D01*
X121766666Y-77325760D02*
X121652381Y-77363855D01*
X121652381Y-77363855D02*
X121576190Y-77363855D01*
X121576190Y-77363855D02*
X121461904Y-77325760D01*
X121461904Y-77325760D02*
X121385714Y-77249569D01*
X121385714Y-77249569D02*
X121347619Y-77173379D01*
X121347619Y-77173379D02*
X121309523Y-77020998D01*
X121309523Y-77020998D02*
X121309523Y-76906712D01*
X121309523Y-76906712D02*
X121347619Y-76754331D01*
X121347619Y-76754331D02*
X121385714Y-76678140D01*
X121385714Y-76678140D02*
X121461904Y-76601950D01*
X121461904Y-76601950D02*
X121576190Y-76563855D01*
X121576190Y-76563855D02*
X121652381Y-76563855D01*
X121652381Y-76563855D02*
X121766666Y-76601950D01*
X121766666Y-76601950D02*
X121804762Y-76640045D01*
X122528571Y-77363855D02*
X122147619Y-77363855D01*
X122147619Y-77363855D02*
X122147619Y-76563855D01*
X136276191Y-76363855D02*
X136276191Y-75563855D01*
X136657143Y-76363855D02*
X136657143Y-75563855D01*
X136657143Y-75563855D02*
X137114286Y-76363855D01*
X137114286Y-76363855D02*
X137114286Y-75563855D01*
X137380952Y-75563855D02*
X137838095Y-75563855D01*
X137609523Y-76363855D02*
X137609523Y-75563855D01*
X136176190Y-58463855D02*
X135795238Y-58463855D01*
X135795238Y-58463855D02*
X135795238Y-57663855D01*
X136442857Y-58463855D02*
X136442857Y-57663855D01*
X136785713Y-58425760D02*
X136899999Y-58463855D01*
X136899999Y-58463855D02*
X137090475Y-58463855D01*
X137090475Y-58463855D02*
X137166666Y-58425760D01*
X137166666Y-58425760D02*
X137204761Y-58387664D01*
X137204761Y-58387664D02*
X137242856Y-58311474D01*
X137242856Y-58311474D02*
X137242856Y-58235283D01*
X137242856Y-58235283D02*
X137204761Y-58159093D01*
X137204761Y-58159093D02*
X137166666Y-58120998D01*
X137166666Y-58120998D02*
X137090475Y-58082902D01*
X137090475Y-58082902D02*
X136938094Y-58044807D01*
X136938094Y-58044807D02*
X136861904Y-58006712D01*
X136861904Y-58006712D02*
X136823809Y-57968617D01*
X136823809Y-57968617D02*
X136785713Y-57892426D01*
X136785713Y-57892426D02*
X136785713Y-57816236D01*
X136785713Y-57816236D02*
X136823809Y-57740045D01*
X136823809Y-57740045D02*
X136861904Y-57701950D01*
X136861904Y-57701950D02*
X136938094Y-57663855D01*
X136938094Y-57663855D02*
X137128571Y-57663855D01*
X137128571Y-57663855D02*
X137242856Y-57701950D01*
X137509523Y-57663855D02*
X138004761Y-57663855D01*
X138004761Y-57663855D02*
X137738095Y-57968617D01*
X137738095Y-57968617D02*
X137852380Y-57968617D01*
X137852380Y-57968617D02*
X137928571Y-58006712D01*
X137928571Y-58006712D02*
X137966666Y-58044807D01*
X137966666Y-58044807D02*
X138004761Y-58120998D01*
X138004761Y-58120998D02*
X138004761Y-58311474D01*
X138004761Y-58311474D02*
X137966666Y-58387664D01*
X137966666Y-58387664D02*
X137928571Y-58425760D01*
X137928571Y-58425760D02*
X137852380Y-58463855D01*
X137852380Y-58463855D02*
X137623809Y-58463855D01*
X137623809Y-58463855D02*
X137547618Y-58425760D01*
X137547618Y-58425760D02*
X137509523Y-58387664D01*
X138347619Y-58463855D02*
X138347619Y-57663855D01*
X138347619Y-57663855D02*
X138538095Y-57663855D01*
X138538095Y-57663855D02*
X138652381Y-57701950D01*
X138652381Y-57701950D02*
X138728571Y-57778140D01*
X138728571Y-57778140D02*
X138766666Y-57854331D01*
X138766666Y-57854331D02*
X138804762Y-58006712D01*
X138804762Y-58006712D02*
X138804762Y-58120998D01*
X138804762Y-58120998D02*
X138766666Y-58273379D01*
X138766666Y-58273379D02*
X138728571Y-58349569D01*
X138728571Y-58349569D02*
X138652381Y-58425760D01*
X138652381Y-58425760D02*
X138538095Y-58463855D01*
X138538095Y-58463855D02*
X138347619Y-58463855D01*
X139147619Y-58463855D02*
X139147619Y-57663855D01*
X139147619Y-58044807D02*
X139604762Y-58044807D01*
X139604762Y-58463855D02*
X139604762Y-57663855D01*
X139009523Y-53063855D02*
X139504761Y-53063855D01*
X139504761Y-53063855D02*
X139238095Y-53368617D01*
X139238095Y-53368617D02*
X139352380Y-53368617D01*
X139352380Y-53368617D02*
X139428571Y-53406712D01*
X139428571Y-53406712D02*
X139466666Y-53444807D01*
X139466666Y-53444807D02*
X139504761Y-53520998D01*
X139504761Y-53520998D02*
X139504761Y-53711474D01*
X139504761Y-53711474D02*
X139466666Y-53787664D01*
X139466666Y-53787664D02*
X139428571Y-53825760D01*
X139428571Y-53825760D02*
X139352380Y-53863855D01*
X139352380Y-53863855D02*
X139123809Y-53863855D01*
X139123809Y-53863855D02*
X139047618Y-53825760D01*
X139047618Y-53825760D02*
X139009523Y-53787664D01*
X139733333Y-53063855D02*
X140000000Y-53863855D01*
X140000000Y-53863855D02*
X140266666Y-53063855D01*
X140457142Y-53063855D02*
X140952380Y-53063855D01*
X140952380Y-53063855D02*
X140685714Y-53368617D01*
X140685714Y-53368617D02*
X140799999Y-53368617D01*
X140799999Y-53368617D02*
X140876190Y-53406712D01*
X140876190Y-53406712D02*
X140914285Y-53444807D01*
X140914285Y-53444807D02*
X140952380Y-53520998D01*
X140952380Y-53520998D02*
X140952380Y-53711474D01*
X140952380Y-53711474D02*
X140914285Y-53787664D01*
X140914285Y-53787664D02*
X140876190Y-53825760D01*
X140876190Y-53825760D02*
X140799999Y-53863855D01*
X140799999Y-53863855D02*
X140571428Y-53863855D01*
X140571428Y-53863855D02*
X140495237Y-53825760D01*
X140495237Y-53825760D02*
X140457142Y-53787664D01*
X139071428Y-77763855D02*
X138614285Y-77763855D01*
X138842857Y-77763855D02*
X138842857Y-76963855D01*
X138842857Y-76963855D02*
X138766666Y-77078140D01*
X138766666Y-77078140D02*
X138690476Y-77154331D01*
X138690476Y-77154331D02*
X138614285Y-77192426D01*
X139909524Y-76963855D02*
X140176191Y-77763855D01*
X140176191Y-77763855D02*
X140442857Y-76963855D01*
X140709524Y-77763855D02*
X140709524Y-76963855D01*
X141090476Y-77763855D02*
X141090476Y-76963855D01*
X141090476Y-76963855D02*
X141547619Y-77763855D01*
X141547619Y-77763855D02*
X141547619Y-76963855D01*
X137409524Y-86663855D02*
X137409524Y-85863855D01*
X137409524Y-85863855D02*
X137600000Y-85863855D01*
X137600000Y-85863855D02*
X137714286Y-85901950D01*
X137714286Y-85901950D02*
X137790476Y-85978140D01*
X137790476Y-85978140D02*
X137828571Y-86054331D01*
X137828571Y-86054331D02*
X137866667Y-86206712D01*
X137866667Y-86206712D02*
X137866667Y-86320998D01*
X137866667Y-86320998D02*
X137828571Y-86473379D01*
X137828571Y-86473379D02*
X137790476Y-86549569D01*
X137790476Y-86549569D02*
X137714286Y-86625760D01*
X137714286Y-86625760D02*
X137600000Y-86663855D01*
X137600000Y-86663855D02*
X137409524Y-86663855D01*
X138590476Y-85863855D02*
X138209524Y-85863855D01*
X138209524Y-85863855D02*
X138171428Y-86244807D01*
X138171428Y-86244807D02*
X138209524Y-86206712D01*
X138209524Y-86206712D02*
X138285714Y-86168617D01*
X138285714Y-86168617D02*
X138476190Y-86168617D01*
X138476190Y-86168617D02*
X138552381Y-86206712D01*
X138552381Y-86206712D02*
X138590476Y-86244807D01*
X138590476Y-86244807D02*
X138628571Y-86320998D01*
X138628571Y-86320998D02*
X138628571Y-86511474D01*
X138628571Y-86511474D02*
X138590476Y-86587664D01*
X138590476Y-86587664D02*
X138552381Y-86625760D01*
X138552381Y-86625760D02*
X138476190Y-86663855D01*
X138476190Y-86663855D02*
X138285714Y-86663855D01*
X138285714Y-86663855D02*
X138209524Y-86625760D01*
X138209524Y-86625760D02*
X138171428Y-86587664D01*
X117409524Y-86663855D02*
X117409524Y-85863855D01*
X117409524Y-85863855D02*
X117600000Y-85863855D01*
X117600000Y-85863855D02*
X117714286Y-85901950D01*
X117714286Y-85901950D02*
X117790476Y-85978140D01*
X117790476Y-85978140D02*
X117828571Y-86054331D01*
X117828571Y-86054331D02*
X117866667Y-86206712D01*
X117866667Y-86206712D02*
X117866667Y-86320998D01*
X117866667Y-86320998D02*
X117828571Y-86473379D01*
X117828571Y-86473379D02*
X117790476Y-86549569D01*
X117790476Y-86549569D02*
X117714286Y-86625760D01*
X117714286Y-86625760D02*
X117600000Y-86663855D01*
X117600000Y-86663855D02*
X117409524Y-86663855D01*
X118628571Y-86663855D02*
X118171428Y-86663855D01*
X118400000Y-86663855D02*
X118400000Y-85863855D01*
X118400000Y-85863855D02*
X118323809Y-85978140D01*
X118323809Y-85978140D02*
X118247619Y-86054331D01*
X118247619Y-86054331D02*
X118171428Y-86092426D01*
X122409524Y-86663855D02*
X122409524Y-85863855D01*
X122409524Y-85863855D02*
X122600000Y-85863855D01*
X122600000Y-85863855D02*
X122714286Y-85901950D01*
X122714286Y-85901950D02*
X122790476Y-85978140D01*
X122790476Y-85978140D02*
X122828571Y-86054331D01*
X122828571Y-86054331D02*
X122866667Y-86206712D01*
X122866667Y-86206712D02*
X122866667Y-86320998D01*
X122866667Y-86320998D02*
X122828571Y-86473379D01*
X122828571Y-86473379D02*
X122790476Y-86549569D01*
X122790476Y-86549569D02*
X122714286Y-86625760D01*
X122714286Y-86625760D02*
X122600000Y-86663855D01*
X122600000Y-86663855D02*
X122409524Y-86663855D01*
X123171428Y-85940045D02*
X123209524Y-85901950D01*
X123209524Y-85901950D02*
X123285714Y-85863855D01*
X123285714Y-85863855D02*
X123476190Y-85863855D01*
X123476190Y-85863855D02*
X123552381Y-85901950D01*
X123552381Y-85901950D02*
X123590476Y-85940045D01*
X123590476Y-85940045D02*
X123628571Y-86016236D01*
X123628571Y-86016236D02*
X123628571Y-86092426D01*
X123628571Y-86092426D02*
X123590476Y-86206712D01*
X123590476Y-86206712D02*
X123133333Y-86663855D01*
X123133333Y-86663855D02*
X123628571Y-86663855D01*
X127409524Y-86663855D02*
X127409524Y-85863855D01*
X127409524Y-85863855D02*
X127600000Y-85863855D01*
X127600000Y-85863855D02*
X127714286Y-85901950D01*
X127714286Y-85901950D02*
X127790476Y-85978140D01*
X127790476Y-85978140D02*
X127828571Y-86054331D01*
X127828571Y-86054331D02*
X127866667Y-86206712D01*
X127866667Y-86206712D02*
X127866667Y-86320998D01*
X127866667Y-86320998D02*
X127828571Y-86473379D01*
X127828571Y-86473379D02*
X127790476Y-86549569D01*
X127790476Y-86549569D02*
X127714286Y-86625760D01*
X127714286Y-86625760D02*
X127600000Y-86663855D01*
X127600000Y-86663855D02*
X127409524Y-86663855D01*
X128133333Y-85863855D02*
X128628571Y-85863855D01*
X128628571Y-85863855D02*
X128361905Y-86168617D01*
X128361905Y-86168617D02*
X128476190Y-86168617D01*
X128476190Y-86168617D02*
X128552381Y-86206712D01*
X128552381Y-86206712D02*
X128590476Y-86244807D01*
X128590476Y-86244807D02*
X128628571Y-86320998D01*
X128628571Y-86320998D02*
X128628571Y-86511474D01*
X128628571Y-86511474D02*
X128590476Y-86587664D01*
X128590476Y-86587664D02*
X128552381Y-86625760D01*
X128552381Y-86625760D02*
X128476190Y-86663855D01*
X128476190Y-86663855D02*
X128247619Y-86663855D01*
X128247619Y-86663855D02*
X128171428Y-86625760D01*
X128171428Y-86625760D02*
X128133333Y-86587664D01*
X132409524Y-86663855D02*
X132409524Y-85863855D01*
X132409524Y-85863855D02*
X132600000Y-85863855D01*
X132600000Y-85863855D02*
X132714286Y-85901950D01*
X132714286Y-85901950D02*
X132790476Y-85978140D01*
X132790476Y-85978140D02*
X132828571Y-86054331D01*
X132828571Y-86054331D02*
X132866667Y-86206712D01*
X132866667Y-86206712D02*
X132866667Y-86320998D01*
X132866667Y-86320998D02*
X132828571Y-86473379D01*
X132828571Y-86473379D02*
X132790476Y-86549569D01*
X132790476Y-86549569D02*
X132714286Y-86625760D01*
X132714286Y-86625760D02*
X132600000Y-86663855D01*
X132600000Y-86663855D02*
X132409524Y-86663855D01*
X133552381Y-86130521D02*
X133552381Y-86663855D01*
X133361905Y-85825760D02*
X133171428Y-86397188D01*
X133171428Y-86397188D02*
X133666667Y-86397188D01*
%TO.C,D5*%
X136140000Y-83540000D02*
X136140000Y-85460000D01*
X136140000Y-85460000D02*
X139000000Y-85460000D01*
X139000000Y-83540000D02*
X136140000Y-83540000D01*
%TO.C,TP6*%
X113120000Y-76000000D02*
G75*
G02*
X110880000Y-76000000I-1120000J0D01*
G01*
X110880000Y-76000000D02*
G75*
G02*
X113120000Y-76000000I1120000J0D01*
G01*
%TO.C,R10*%
X122265000Y-80727064D02*
X122265000Y-80272936D01*
X123735000Y-80727064D02*
X123735000Y-80272936D01*
%TO.C,U1*%
X107510000Y-51900000D02*
X110250000Y-51900000D01*
X110250000Y-70100000D01*
X107510000Y-70100000D01*
X107510000Y-51900000D01*
X122750000Y-51900000D02*
X125490000Y-51900000D01*
X125490000Y-70100000D01*
X122750000Y-70100000D01*
X122750000Y-51900000D01*
D11*
X109130000Y-51300000D02*
G75*
G02*
X108630000Y-51300000I-250000J0D01*
G01*
X108630000Y-51300000D02*
G75*
G02*
X109130000Y-51300000I250000J0D01*
G01*
%TO.C,TP8*%
D10*
X125620000Y-77000000D02*
G75*
G02*
X123380000Y-77000000I-1120000J0D01*
G01*
X123380000Y-77000000D02*
G75*
G02*
X125620000Y-77000000I1120000J0D01*
G01*
%TO.C,C6*%
X134738748Y-52265000D02*
X135261252Y-52265000D01*
X134738748Y-53735000D02*
X135261252Y-53735000D01*
%TO.C,J3*%
X142670000Y-75730000D02*
X142670000Y-57890000D01*
X145330000Y-57890000D02*
X142670000Y-57890000D01*
X145330000Y-75730000D02*
X142670000Y-75730000D01*
X145330000Y-75730000D02*
X145330000Y-57890000D01*
X145330000Y-77000000D02*
X145330000Y-78330000D01*
X145330000Y-78330000D02*
X144000000Y-78330000D01*
%TO.C,D1*%
X116140000Y-83540000D02*
X116140000Y-85460000D01*
X116140000Y-85460000D02*
X119000000Y-85460000D01*
X119000000Y-83540000D02*
X116140000Y-83540000D01*
%TO.C,D2*%
X121140000Y-83540000D02*
X121140000Y-85460000D01*
X121140000Y-85460000D02*
X124000000Y-85460000D01*
X124000000Y-83540000D02*
X121140000Y-83540000D01*
%TO.C,R7*%
X129772936Y-55265000D02*
X130227064Y-55265000D01*
X129772936Y-56735000D02*
X130227064Y-56735000D01*
%TO.C,R4*%
X114265000Y-75727064D02*
X114265000Y-75272936D01*
X115735000Y-75727064D02*
X115735000Y-75272936D01*
%TO.C,R8*%
X134772936Y-55265000D02*
X135227064Y-55265000D01*
X134772936Y-56735000D02*
X135227064Y-56735000D01*
%TO.C,C9*%
X133738748Y-65765000D02*
X134261252Y-65765000D01*
X133738748Y-67235000D02*
X134261252Y-67235000D01*
%TO.C,R9*%
X117265000Y-80727064D02*
X117265000Y-80272936D01*
X118735000Y-80727064D02*
X118735000Y-80272936D01*
%TO.C,C10*%
X133738748Y-69265000D02*
X134261252Y-69265000D01*
X133738748Y-70735000D02*
X134261252Y-70735000D01*
%TO.C,J2*%
X102170000Y-75330000D02*
X102170000Y-74000000D01*
X103500000Y-75330000D02*
X102170000Y-75330000D01*
X104770000Y-72670000D02*
X109910000Y-72670000D01*
X104770000Y-75330000D02*
X104770000Y-72670000D01*
X104770000Y-75330000D02*
X109910000Y-75330000D01*
X109910000Y-75330000D02*
X109910000Y-72670000D01*
%TO.C,R13*%
X137265000Y-80727064D02*
X137265000Y-80272936D01*
X138735000Y-80727064D02*
X138735000Y-80272936D01*
%TO.C,TP7*%
X125620000Y-73500000D02*
G75*
G02*
X123380000Y-73500000I-1120000J0D01*
G01*
X123380000Y-73500000D02*
G75*
G02*
X125620000Y-73500000I1120000J0D01*
G01*
%TO.C,SW2*%
X108900000Y-79900000D02*
X114100000Y-79900000D01*
X108900000Y-85100000D02*
X114100000Y-85100000D01*
%TO.C,D3*%
X126140000Y-83540000D02*
X126140000Y-85460000D01*
X126140000Y-85460000D02*
X129000000Y-85460000D01*
X129000000Y-83540000D02*
X126140000Y-83540000D01*
%TO.C,C5*%
X129738748Y-52265000D02*
X130261252Y-52265000D01*
X129738748Y-53735000D02*
X130261252Y-53735000D01*
%TO.C,TP9*%
X138120000Y-74000000D02*
G75*
G02*
X135880000Y-74000000I-1120000J0D01*
G01*
X135880000Y-74000000D02*
G75*
G02*
X138120000Y-74000000I1120000J0D01*
G01*
%TO.C,R12*%
X132265000Y-80727064D02*
X132265000Y-80272936D01*
X133735000Y-80727064D02*
X133735000Y-80272936D01*
%TO.C,TP4*%
X104620000Y-65000000D02*
G75*
G02*
X102380000Y-65000000I-1120000J0D01*
G01*
X102380000Y-65000000D02*
G75*
G02*
X104620000Y-65000000I1120000J0D01*
G01*
%TO.C,C8*%
X133738748Y-62265000D02*
X134261252Y-62265000D01*
X133738748Y-63735000D02*
X134261252Y-63735000D01*
%TO.C,D4*%
X131140000Y-83540000D02*
X131140000Y-85460000D01*
X131140000Y-85460000D02*
X134000000Y-85460000D01*
X134000000Y-83540000D02*
X131140000Y-83540000D01*
%TO.C,TP3*%
X141120000Y-55500000D02*
G75*
G02*
X138880000Y-55500000I-1120000J0D01*
G01*
X138880000Y-55500000D02*
G75*
G02*
X141120000Y-55500000I1120000J0D01*
G01*
%TO.C,R11*%
X127265000Y-80727064D02*
X127265000Y-80272936D01*
X128735000Y-80727064D02*
X128735000Y-80272936D01*
%TD*%
M02*
