%TF.GenerationSoftware,KiCad,Pcbnew,10.0.6*%
%TF.CreationDate,2026-09-27T01:16:22+02:00*%
%TF.ProjectId,Vibra_V1,56696272-615f-4563-912e-6b696361645f,E-HS*%
%TF.SameCoordinates,Original*%
%TF.FileFunction,Soldermask,Top*%
%TF.FilePolarity,Negative*%
%FSLAX46Y46*%
G04 Gerber Fmt 4.6, Leading zero omitted, Abs format (unit mm)*
G04 Created by KiCad (PCBNEW 10.0.6) date 2026-09-27 01:16:22*
%MOMM*%
%LPD*%
G01*
G04 APERTURE LIST*
G04 Aperture macros list*
%AMRoundRect*
0 Rectangle with rounded corners*
0 $1 Rounding radius*
0 $2 $3 $4 $5 $6 $7 $8 $9 X,Y pos of 4 corners*
0 Add a 4 corners polygon primitive as box body*
4,1,4,$2,$3,$4,$5,$6,$7,$8,$9,$2,$3,0*
0 Add four circle primitives for the rounded corners*
1,1,$1+$1,$2,$3*
1,1,$1+$1,$4,$5*
1,1,$1+$1,$6,$7*
1,1,$1+$1,$8,$9*
0 Add four rect primitives between the rounded corners*
20,1,$1+$1,$2,$3,$4,$5,0*
20,1,$1+$1,$4,$5,$6,$7,0*
20,1,$1+$1,$6,$7,$8,$9,0*
20,1,$1+$1,$8,$9,$2,$3,0*%
G04 Aperture macros list end*
%ADD10RoundRect,0.250000X-0.325000X-0.450000X0.325000X-0.450000X0.325000X0.450000X-0.325000X0.450000X0*%
%ADD11C,1.500000*%
%ADD12RoundRect,0.250000X0.450000X-0.350000X0.450000X0.350000X-0.450000X0.350000X-0.450000X-0.350000X0*%
%ADD13C,3.200000*%
%ADD14R,1.900000X1.900000*%
%ADD15C,1.900000*%
%ADD16C,2.500000*%
%ADD17RoundRect,0.250000X-0.337500X-0.475000X0.337500X-0.475000X0.337500X0.475000X-0.337500X0.475000X0*%
%ADD18O,1.900000X1.900000*%
%ADD19RoundRect,0.250000X-0.350000X-0.450000X0.350000X-0.450000X0.350000X0.450000X-0.350000X0.450000X0*%
%ADD20R,1.200000X0.800000*%
G04 APERTURE END LIST*
D10*
%TO.C,D5*%
X136975000Y-84500000D03*
X139025000Y-84500000D03*
%TD*%
D11*
%TO.C,TP6*%
X112000000Y-76000000D03*
%TD*%
D12*
%TO.C,R10*%
X123000000Y-81500000D03*
X123000000Y-79500000D03*
%TD*%
D13*
%TO.C,H1*%
X103500000Y-53500000D03*
%TD*%
D14*
%TO.C,U1*%
X108880000Y-53380000D03*
D15*
X108880000Y-55920000D03*
X108880000Y-58460000D03*
X108880000Y-61000000D03*
X108880000Y-63540000D03*
X108880000Y-66080000D03*
X108880000Y-68620000D03*
X124120000Y-68620000D03*
X124120000Y-66080000D03*
X124120000Y-63540000D03*
X124120000Y-61000000D03*
X124120000Y-58460000D03*
X124120000Y-55920000D03*
X124120000Y-53380000D03*
%TD*%
D16*
%TO.C,H6*%
X128760000Y-75730000D03*
%TD*%
D11*
%TO.C,TP8*%
X124500000Y-77000000D03*
%TD*%
D17*
%TO.C,C6*%
X133962500Y-53000000D03*
X136037500Y-53000000D03*
%TD*%
D14*
%TO.C,J3*%
X144000000Y-77000000D03*
D18*
X144000000Y-74460000D03*
X144000000Y-71920000D03*
X144000000Y-69380000D03*
X144000000Y-66840000D03*
X144000000Y-64300000D03*
X144000000Y-61760000D03*
X144000000Y-59220000D03*
%TD*%
D10*
%TO.C,D1*%
X116975000Y-84500000D03*
X119025000Y-84500000D03*
%TD*%
%TO.C,D2*%
X121975000Y-84500000D03*
X124025000Y-84500000D03*
%TD*%
D19*
%TO.C,R7*%
X129000000Y-56000000D03*
X131000000Y-56000000D03*
%TD*%
D12*
%TO.C,R4*%
X115000000Y-76500000D03*
X115000000Y-74500000D03*
%TD*%
D13*
%TO.C,H3*%
X103500000Y-84500000D03*
%TD*%
D19*
%TO.C,R8*%
X134000000Y-56000000D03*
X136000000Y-56000000D03*
%TD*%
D17*
%TO.C,C9*%
X132962500Y-66500000D03*
X135037500Y-66500000D03*
%TD*%
D12*
%TO.C,R9*%
X118000000Y-81500000D03*
X118000000Y-79500000D03*
%TD*%
D17*
%TO.C,C10*%
X132962500Y-70000000D03*
X135037500Y-70000000D03*
%TD*%
D14*
%TO.C,J2*%
X103500000Y-74000000D03*
D18*
X106040000Y-74000000D03*
X108580000Y-74000000D03*
%TD*%
D12*
%TO.C,R13*%
X138000000Y-81500000D03*
X138000000Y-79500000D03*
%TD*%
D11*
%TO.C,TP7*%
X124500000Y-73500000D03*
%TD*%
D20*
%TO.C,SW2*%
X108400000Y-80650000D03*
X114600000Y-80650000D03*
X108400000Y-84350000D03*
X114600000Y-84350000D03*
%TD*%
D10*
%TO.C,D3*%
X126975000Y-84500000D03*
X129025000Y-84500000D03*
%TD*%
D17*
%TO.C,C5*%
X128962500Y-53000000D03*
X131037500Y-53000000D03*
%TD*%
D16*
%TO.C,H5*%
X128760000Y-60490000D03*
%TD*%
D11*
%TO.C,TP9*%
X137000000Y-74000000D03*
%TD*%
D12*
%TO.C,R12*%
X133000000Y-81500000D03*
X133000000Y-79500000D03*
%TD*%
D13*
%TO.C,H4*%
X144500000Y-84500000D03*
%TD*%
D11*
%TO.C,TP4*%
X103500000Y-65000000D03*
%TD*%
D13*
%TO.C,H2*%
X144500000Y-53500000D03*
%TD*%
D17*
%TO.C,C8*%
X132962500Y-63000000D03*
X135037500Y-63000000D03*
%TD*%
D10*
%TO.C,D4*%
X131975000Y-84500000D03*
X134025000Y-84500000D03*
%TD*%
D11*
%TO.C,TP3*%
X140000000Y-55500000D03*
%TD*%
D12*
%TO.C,R11*%
X128000000Y-81500000D03*
X128000000Y-79500000D03*
%TD*%
M02*
