M48
; DRILL file KiCad 10.0.6 date 2026-09-27T01:16:22
; FORMAT={-:-/ absolute / metric / decimal}
; #@! TF.CreationDate,2026-09-27T01:16:22+02:00
; #@! TF.GenerationSoftware,Kicad,Pcbnew,10.0.6
; #@! TF.FileFunction,Plated,1,2,PTH
FMAT,2
METRIC
; #@! TA.AperFunction,Plated,PTH,ViaDrill
T1C0.300
; #@! TA.AperFunction,Plated,PTH,ComponentDrill
T2C1.050
; #@! TA.AperFunction,Plated,PTH,ComponentDrill
T3C1.100
%
G90
G05
T1
X110.549Y-64.771
X113.988Y-79.742
X115.494Y-78.267
X115.563Y-66.061
X115.818Y-80.754
X119.274Y-81.212
X123.116Y-73.879
X123.116Y-76.849
X124.532Y-78.402
X125.063Y-69.839
X130.488Y-78.395
X131.681Y-66.705
X133.376Y-57.681
X138.121Y-57.339
X142.323Y-57.554
T2
X108.88Y-53.38
X108.88Y-55.92
X108.88Y-58.46
X108.88Y-61.0
X108.88Y-63.54
X108.88Y-66.08
X108.88Y-68.62
X124.12Y-53.38
X124.12Y-55.92
X124.12Y-58.46
X124.12Y-61.0
X124.12Y-63.54
X124.12Y-66.08
X124.12Y-68.62
X144.0Y-59.22
X144.0Y-61.76
X144.0Y-64.3
X144.0Y-66.84
X144.0Y-69.38
X144.0Y-71.92
X144.0Y-74.46
X144.0Y-77.0
T3
X103.5Y-74.0
X106.04Y-74.0
X108.58Y-74.0
M30
